<?xml version="1.0" encoding="UTF-8"?>
<svg version="1.1" xmlns="http://www.w3.org/2000/svg" width="512" height="512">
<path d="M0 0 C1.08652863 0.1438488 1.08652863 0.1438488 2.19500732 0.29060364 C4.55360228 0.6081793 6.9096579 0.94085355 9.265625 1.27734375 C10.07185303 1.39088196 10.87808105 1.50442017 11.70874023 1.62139893 C47.37305356 6.69014656 85.38051124 16.93648431 114.73974609 38.87695312 C120.31835249 43.00063959 123.91371028 43.91178043 130.765625 43.33984375 C144.29096232 42.82288468 154.24015417 46.1756405 164.515625 55.21484375 C173.79741749 64.15823755 179.75078228 74.92079982 183.515625 87.21484375 C183.515625 88.53484375 183.515625 89.85484375 183.515625 91.21484375 C184.24265625 91.30121094 184.9696875 91.38757813 185.71875 91.4765625 C200.09013307 93.48487116 213.45680666 99.37896699 222.8515625 110.77734375 C230.01252369 121.26663901 233.91156367 131.96130292 233.890625 144.65234375 C233.88973877 145.62010742 233.88885254 146.58787109 233.88793945 147.58496094 C233.74583994 156.31290032 232.13822299 163.90525012 229.515625 172.21484375 C229.20753906 173.271875 228.89945312 174.32890625 228.58203125 175.41796875 C227.91807427 177.69257735 227.2322418 179.95641505 226.515625 182.21484375 C226.96292969 182.60414063 227.41023438 182.9934375 227.87109375 183.39453125 C233.61344925 188.70835276 239.03111417 196.14744682 239.67675781 204.23266602 C239.9391904 218.59779888 239.58938527 230.32653747 230.515625 242.21484375 C229.2925276 243.12707056 228.04250203 244.00455336 226.765625 244.83984375 C223.11571843 247.75497701 222.86089788 250.47755769 222.328125 255.02734375 C222.12918723 257.23686178 221.94432426 259.44723602 221.76220703 261.65820312 C216.84520177 312.63927149 195.78909967 362.39994641 160.12890625 399.484375 C157.91789872 401.79453085 155.82663951 404.1473322 153.765625 406.58984375 C150.33294464 410.53988981 146.51602756 413.8534406 142.515625 417.21484375 C141.54496094 418.06175781 140.57429688 418.90867187 139.57421875 419.78125 C132.22629755 426.16654179 124.67300203 431.8788896 116.515625 437.21484375 C115.04609375 438.17970703 115.04609375 438.17970703 113.546875 439.1640625 C83.01732865 458.55976656 49.35307113 470.50871391 13.515625 475.21484375 C12.76394043 475.31796875 12.01225586 475.42109375 11.23779297 475.52734375 C-24.66995853 479.82491606 -63.4467555 475.70970788 -97.03027344 462.31152344 C-97.78083008 462.0230957 -98.53138672 461.73466797 -99.3046875 461.4375 C-99.94680176 461.17718994 -100.58891602 460.91687988 -101.25048828 460.64868164 C-106.72346657 459.58578739 -112.37224052 461.63007005 -117.62109375 463.10546875 C-119.00230563 463.48768338 -120.38374452 463.86907841 -121.76538086 464.24975586 C-122.4833786 464.44842255 -123.20137634 464.64708923 -123.94113159 464.85177612 C-162.3139174 475.39763839 -210.7169246 486.87718411 -247.98046875 466.875 C-260.88357411 458.80217325 -268.05334329 447.85135858 -271.87792969 433.26611328 C-272.94756089 427.88436981 -272.97106956 422.56098125 -272.921875 417.08984375 C-272.91430176 415.90350342 -272.90672852 414.71716309 -272.89892578 413.49487305 C-272.72039173 403.91723781 -271.52077968 395.28477402 -268.484375 386.21484375 C-268.27006836 385.5604834 -268.05576172 384.90612305 -267.83496094 384.23193359 C-266.24397233 379.47633664 -264.43033269 374.83551075 -262.484375 370.21484375 C-262.2064209 369.55049316 -261.9284668 368.88614258 -261.64208984 368.20166016 C-256.92439288 357.12799202 -250.89095195 347.03762118 -244.4375 336.89453125 C-243.93597412 336.0859668 -243.43444824 335.27740234 -242.91772461 334.44433594 C-241.484375 332.21484375 -241.484375 332.21484375 -240.08422852 330.43066406 C-238.2206698 327.88653083 -237.37571222 325.93726891 -237.84814453 322.79638672 C-238.73522919 319.86779217 -239.79346466 317.05910022 -240.921875 314.21484375 C-246.8365762 298.0260598 -250.61114341 281.357091 -252.484375 264.21484375 C-252.59523437 263.27253906 -252.70609375 262.33023437 -252.8203125 261.359375 C-258.78401052 200.35235606 -240.30161953 138.14072017 -201.921875 90.46484375 C-198.21843418 86.01416 -194.37682036 81.70080723 -190.47265625 77.42578125 C-188.8883368 75.66404292 -187.39046502 73.88395588 -185.921875 72.02734375 C-183.36416994 69.07614561 -180.65133842 66.62753411 -177.6796875 64.10546875 C-176.22940195 62.85646839 -174.80628142 61.57513283 -173.4140625 60.26171875 C-130.92601063 20.29038075 -72.4166657 1.11482368 -14.91845703 0.35668945 C-12.47844964 0.28585538 -12.47844964 0.28585538 -10.13916016 -0.34521484 C-6.65704588 -0.92225824 -3.46063937 -0.48415749 0 0 Z " fill="#958118" transform="translate(272.484375,17.78515625)"/>
<path d="M0 0 C1.08652863 0.1438488 1.08652863 0.1438488 2.19500732 0.29060364 C4.55360228 0.6081793 6.9096579 0.94085355 9.265625 1.27734375 C10.07185303 1.39088196 10.87808105 1.50442017 11.70874023 1.62139893 C47.37305356 6.69014656 85.38051124 16.93648431 114.73974609 38.87695312 C120.31835249 43.00063959 123.91371028 43.91178043 130.765625 43.33984375 C144.29096232 42.82288468 154.24015417 46.1756405 164.515625 55.21484375 C173.79741749 64.15823755 179.75078228 74.92079982 183.515625 87.21484375 C183.515625 88.53484375 183.515625 89.85484375 183.515625 91.21484375 C184.24265625 91.30121094 184.9696875 91.38757813 185.71875 91.4765625 C200.09013307 93.48487116 213.45680666 99.37896699 222.8515625 110.77734375 C230.01252369 121.26663901 233.91156367 131.96130292 233.890625 144.65234375 C233.88973877 145.62010742 233.88885254 146.58787109 233.88793945 147.58496094 C233.74583994 156.31290032 232.13822299 163.90525012 229.515625 172.21484375 C229.20753906 173.271875 228.89945312 174.32890625 228.58203125 175.41796875 C227.91807427 177.69257735 227.2322418 179.95641505 226.515625 182.21484375 C226.96292969 182.60414063 227.41023438 182.9934375 227.87109375 183.39453125 C233.61344925 188.70835276 239.03111417 196.14744682 239.67675781 204.23266602 C239.9391904 218.59779888 239.58938527 230.32653747 230.515625 242.21484375 C229.2925276 243.12707056 228.04250203 244.00455336 226.765625 244.83984375 C223.11571843 247.75497701 222.86089788 250.47755769 222.328125 255.02734375 C222.12918723 257.23686178 221.94432426 259.44723602 221.76220703 261.65820312 C216.84520177 312.63927149 195.78909967 362.39994641 160.12890625 399.484375 C157.91789872 401.79453085 155.82663951 404.1473322 153.765625 406.58984375 C150.33294464 410.53988981 146.51602756 413.8534406 142.515625 417.21484375 C141.54496094 418.06175781 140.57429688 418.90867187 139.57421875 419.78125 C132.22629755 426.16654179 124.67300203 431.8788896 116.515625 437.21484375 C115.04609375 438.17970703 115.04609375 438.17970703 113.546875 439.1640625 C83.01732865 458.55976656 49.35307113 470.50871391 13.515625 475.21484375 C12.76394043 475.31796875 12.01225586 475.42109375 11.23779297 475.52734375 C-24.66995853 479.82491606 -63.4467555 475.70970788 -97.03027344 462.31152344 C-97.78083008 462.0230957 -98.53138672 461.73466797 -99.3046875 461.4375 C-99.94680176 461.17718994 -100.58891602 460.91687988 -101.25048828 460.64868164 C-106.72346657 459.58578739 -112.37224052 461.63007005 -117.62109375 463.10546875 C-119.00230563 463.48768338 -120.38374452 463.86907841 -121.76538086 464.24975586 C-122.4833786 464.44842255 -123.20137634 464.64708923 -123.94113159 464.85177612 C-162.3139174 475.39763839 -210.7169246 486.87718411 -247.98046875 466.875 C-260.88357411 458.80217325 -268.05334329 447.85135858 -271.87792969 433.26611328 C-272.94756089 427.88436981 -272.97106956 422.56098125 -272.921875 417.08984375 C-272.91430176 415.90350342 -272.90672852 414.71716309 -272.89892578 413.49487305 C-272.72039173 403.91723781 -271.52077968 395.28477402 -268.484375 386.21484375 C-268.27006836 385.5604834 -268.05576172 384.90612305 -267.83496094 384.23193359 C-266.24397233 379.47633664 -264.43033269 374.83551075 -262.484375 370.21484375 C-262.2064209 369.55049316 -261.9284668 368.88614258 -261.64208984 368.20166016 C-256.92439288 357.12799202 -250.89095195 347.03762118 -244.4375 336.89453125 C-243.93597412 336.0859668 -243.43444824 335.27740234 -242.91772461 334.44433594 C-241.484375 332.21484375 -241.484375 332.21484375 -240.08422852 330.43066406 C-238.2206698 327.88653083 -237.37571222 325.93726891 -237.84814453 322.79638672 C-238.73522919 319.86779217 -239.79346466 317.05910022 -240.921875 314.21484375 C-246.8365762 298.0260598 -250.61114341 281.357091 -252.484375 264.21484375 C-252.59523437 263.27253906 -252.70609375 262.33023437 -252.8203125 261.359375 C-258.78401052 200.35235606 -240.30161953 138.14072017 -201.921875 90.46484375 C-198.21843418 86.01416 -194.37682036 81.70080723 -190.47265625 77.42578125 C-188.8883368 75.66404292 -187.39046502 73.88395588 -185.921875 72.02734375 C-183.36416994 69.07614561 -180.65133842 66.62753411 -177.6796875 64.10546875 C-176.22940195 62.85646839 -174.80628142 61.57513283 -173.4140625 60.26171875 C-130.92601063 20.29038075 -72.4166657 1.11482368 -14.91845703 0.35668945 C-12.47844964 0.28585538 -12.47844964 0.28585538 -10.13916016 -0.34521484 C-6.65704588 -0.92225824 -3.46063937 -0.48415749 0 0 Z M-47.484375 17.21484375 C-48.75667969 17.40949219 -50.02898437 17.60414062 -51.33984375 17.8046875 C-87.97626121 23.49960339 -123.37768597 38.07333372 -152.484375 61.21484375 C-153.309375 61.84777344 -154.134375 62.48070312 -154.984375 63.1328125 C-161.67821142 68.33555395 -167.88645867 74.02563276 -174.0390625 79.84863281 C-175.25334594 80.99645885 -176.47714597 82.1342056 -177.703125 83.26953125 C-206.41306745 110.68517302 -225.48040781 150.0243856 -234.796875 188.02734375 C-235.16099487 189.51113525 -235.16099487 189.51113525 -235.5324707 191.02490234 C-238.9401631 205.6368752 -239.80950353 219.75473441 -239.74511719 234.69360352 C-239.73440438 237.64425256 -239.74506785 240.59429129 -239.7578125 243.54492188 C-239.77965182 271.9058821 -234.93310438 302.86677777 -221.484375 328.21484375 C-218.26893356 325.16017438 -215.63929943 321.88859274 -212.984375 318.33984375 C-201.03985262 302.59906979 -187.58662891 288.03630057 -173.484375 274.21484375 C-169.95570709 275.54424155 -166.76875493 277.10576644 -163.51953125 279.015625 C-162.56473877 279.57475586 -161.60994629 280.13388672 -160.6262207 280.70996094 C-159.61003662 281.30969727 -158.59385254 281.90943359 -157.546875 282.52734375 C-156.4952417 283.14383789 -155.4436084 283.76033203 -154.36010742 284.39550781 C-148.9583403 287.56575039 -143.5689234 290.75629817 -138.1875 293.9609375 C-137.19613037 294.55028076 -136.20476074 295.13962402 -135.18334961 295.74682617 C-133.29665272 296.86978025 -131.41195772 297.9961064 -129.52954102 299.1262207 C-128.67545654 299.63499756 -127.82137207 300.14377441 -126.94140625 300.66796875 C-126.19866455 301.11301758 -125.45592285 301.55806641 -124.69067383 302.01660156 C-122.34795345 303.28893438 -119.97582974 304.27182033 -117.484375 305.21484375 C-123.95705143 320.75374986 -130.46784701 336.27411117 -137.171875 351.71484375 C-137.43933533 352.33140839 -137.70679565 352.94797302 -137.98236084 353.58322144 C-140.80940577 360.09822341 -143.65347524 366.60535152 -146.5234375 373.1015625 C-146.99305908 374.16890625 -147.46268066 375.23625 -147.9465332 376.3359375 C-148.82304585 378.32635494 -149.70413028 380.31476773 -150.59057617 382.30078125 C-150.9744751 383.17347656 -151.35837402 384.04617188 -151.75390625 384.9453125 C-152.09010986 385.70223389 -152.42631348 386.45915527 -152.77270508 387.23901367 C-153.65381295 389.33524427 -153.65381295 389.33524427 -153.484375 392.21484375 C-152.824375 392.21484375 -152.164375 392.21484375 -151.484375 392.21484375 C-143.54642128 374.46133312 -143.54642128 374.46133312 -135.734375 356.65234375 C-135.28578125 355.61980469 -134.8371875 354.58726562 -134.375 353.5234375 C-133.36439801 351.31625625 -133.36439801 351.31625625 -133.484375 349.21484375 C-132.78957031 348.95703125 -132.09476562 348.69921875 -131.37890625 348.43359375 C-128.15666235 347.07685948 -125.21902279 345.42996269 -122.171875 343.71484375 C-115.52309291 340.10060367 -108.6967216 336.98772037 -101.734375 334.02734375 C-100.80842529 333.62386719 -99.88247559 333.22039062 -98.9284668 332.8046875 C-95.81073836 331.50437245 -92.66831405 330.34356326 -89.484375 329.21484375 C-88.24977539 328.7573877 -87.01517578 328.29993164 -85.74316406 327.82861328 C-70.07168386 322.58988839 -53.46130767 323.46002024 -37.14117432 323.46624756 C-32.33954459 323.46344692 -27.53804745 323.43027174 -22.73653793 323.39817429 C-18.99813569 323.37324468 -15.26003727 323.35339341 -11.52154541 323.35235596 C-2.45873688 323.33512208 6.48237188 322.89965555 15.515625 322.21484375 C15.845625 316.60484375 16.175625 310.99484375 16.515625 305.21484375 C17.71533936 305.22008057 18.91505371 305.22531738 20.15112305 305.23071289 C46.62600828 305.33582929 73.05538869 305.12576198 99.515625 304.21484375 C99.45503906 305.15577881 99.39445312 306.09671387 99.33203125 307.06616211 C99.1041213 310.64632069 98.88111224 314.22672159 98.66113281 317.80737305 C98.56600889 319.34036855 98.46907943 320.87325336 98.37011719 322.40600586 C98.03082533 327.67368505 97.75444631 332.94171416 97.515625 338.21484375 C97.4544751 339.38466797 97.4544751 339.38466797 97.39208984 340.578125 C97.28009879 342.88275793 97.20532479 345.18579436 97.140625 347.4921875 C97.10251709 348.18593979 97.06440918 348.87969208 97.02514648 349.59446716 C96.95961055 353.54607164 97.47850095 355.16481353 99.86328125 358.37866211 C103.19127972 361.46680207 106.79452886 364.03991152 110.54174805 366.5980072 C113.61995761 368.93294666 116.07459817 370.80891642 117.25708008 374.57849121 C117.53451097 377.32751956 117.57219093 379.97983077 117.515625 382.7421875 C117.52650146 383.73110489 117.53737793 384.72002228 117.54858398 385.73890686 C117.57464779 388.8778421 117.54595667 392.01349764 117.515625 395.15234375 C117.52372052 397.28842826 117.53540108 399.42450239 117.55078125 401.56054688 C117.58056321 406.77924107 117.56547436 411.99633498 117.515625 417.21484375 C118.175625 417.21484375 118.835625 417.21484375 119.515625 417.21484375 C119.71931726 410.8107775 119.85891217 404.40755273 119.95507812 398.00097656 C119.99518466 395.82422676 120.04968649 393.6476908 120.11914062 391.47167969 C120.21676177 388.33344712 120.26167876 385.19807326 120.296875 382.05859375 C120.33816528 381.09369019 120.37945557 380.12878662 120.42199707 379.13464355 C120.4256801 373.5248943 119.63097156 370.72056427 115.6184082 366.67944336 C114.27068472 365.5014482 112.90515363 364.34322371 111.515625 363.21484375 C110.71511719 362.46332031 109.91460937 361.71179688 109.08984375 360.9375 C108.15591797 360.11572266 108.15591797 360.11572266 107.203125 359.27734375 C106.56761719 358.71144531 105.93210937 358.14554687 105.27734375 357.5625 C103.44772187 356.01152304 103.44772187 356.01152304 100.515625 355.21484375 C100.845625 338.38484375 101.175625 321.55484375 101.515625 304.21484375 C104.155625 304.54484375 106.795625 304.87484375 109.515625 305.21484375 C111.825625 319.07484375 114.135625 332.93484375 116.515625 347.21484375 C122.27 348.69984375 122.27 348.69984375 128.140625 350.21484375 C139.82102789 353.29413509 151.09529589 357.08198803 162.34106445 361.47802734 C164.71040436 362.28084174 167.05562852 362.77287005 169.515625 363.21484375 C181.58330491 347.93460741 189.21766304 329.4719357 195.515625 311.21484375 C195.80308594 310.39209961 196.09054687 309.56935547 196.38671875 308.72167969 C200.21073789 297.6593386 202.76989634 286.77596069 204.515625 275.21484375 C204.82306641 273.590625 204.82306641 273.590625 205.13671875 271.93359375 C206.88737117 262.3714095 206.69964086 252.89612264 206.515625 243.21484375 C202.02557753 243.79203969 198.45062175 244.99777232 194.328125 246.83984375 C175.52382334 254.73535694 149.69067282 263.60356528 129.7265625 256.16015625 C128.63214844 255.69222656 128.63214844 255.69222656 127.515625 255.21484375 C128.010625 254.14234375 128.505625 253.06984375 129.015625 251.96484375 C131.35993686 245.72075245 131.74519304 238.47256525 129.37890625 232.203125 C128.30070068 228.47087496 128.96339624 227.09541565 130.390625 223.52734375 C136.04564979 205.50794273 134.29639327 181.61107604 125.89453125 164.70703125 C119.92244652 153.91329172 112.815555 144.58014601 100.578125 141.02734375 C95.92604691 139.59532651 92.00051507 137.28719675 87.828125 134.83984375 C78.50577283 129.4056427 68.88450299 126.13068208 58.515625 123.21484375 C59.34707031 122.74175781 60.17851562 122.26867187 61.03515625 121.78125 C68.24851427 117.731293 68.24851427 117.731293 72.453125 110.96484375 C72.80882261 109.38185364 73.16286922 107.79849202 73.515625 106.21484375 C80.45224708 87.05275746 90.71243497 73.10782391 108.515625 63.21484375 C111.18804713 61.98982105 113.69631212 61.06063762 116.515625 60.21484375 C112.86513287 56.33705683 109.08823249 53.31857893 104.640625 50.40234375 C103.9791748 49.96857422 103.31772461 49.53480469 102.63623047 49.08789062 C88.1106956 39.70056987 72.69272336 33.24854994 56.515625 27.21484375 C55.68015137 26.90240723 54.84467773 26.5899707 53.98388672 26.26806641 C31.23434963 17.95582779 6.80593379 15.01054098 -17.296875 15.02734375 C-17.95867767 15.02761566 -18.62048035 15.02788757 -19.30233765 15.02816772 C-28.90325549 15.04629279 -38.03593942 15.44950737 -47.484375 17.21484375 Z " fill="#FEC061" transform="translate(272.484375,17.78515625)"/>
<path d="M0 0 C1.08652863 0.1438488 1.08652863 0.1438488 2.19500732 0.29060364 C4.55360228 0.6081793 6.9096579 0.94085355 9.265625 1.27734375 C10.07185303 1.39088196 10.87808105 1.50442017 11.70874023 1.62139893 C47.37305356 6.69014656 85.38051124 16.93648431 114.73974609 38.87695312 C120.31835249 43.00063959 123.91371028 43.91178043 130.765625 43.33984375 C144.29096232 42.82288468 154.24015417 46.1756405 164.515625 55.21484375 C173.79741749 64.15823755 179.75078228 74.92079982 183.515625 87.21484375 C183.515625 88.53484375 183.515625 89.85484375 183.515625 91.21484375 C184.24265625 91.30121094 184.9696875 91.38757813 185.71875 91.4765625 C200.09013307 93.48487116 213.45680666 99.37896699 222.8515625 110.77734375 C230.01252369 121.26663901 233.91156367 131.96130292 233.890625 144.65234375 C233.88973877 145.62010742 233.88885254 146.58787109 233.88793945 147.58496094 C233.74583994 156.31290032 232.13822299 163.90525012 229.515625 172.21484375 C229.20753906 173.271875 228.89945312 174.32890625 228.58203125 175.41796875 C227.91807427 177.69257735 227.2322418 179.95641505 226.515625 182.21484375 C226.96292969 182.60414063 227.41023438 182.9934375 227.87109375 183.39453125 C233.61344925 188.70835276 239.03111417 196.14744682 239.67675781 204.23266602 C239.9391904 218.59779888 239.58938527 230.32653747 230.515625 242.21484375 C229.2925276 243.12707056 228.04250203 244.00455336 226.765625 244.83984375 C223.11571843 247.75497701 222.86089788 250.47755769 222.328125 255.02734375 C222.12918723 257.23686178 221.94432426 259.44723602 221.76220703 261.65820312 C216.84520177 312.63927149 195.78909967 362.39994641 160.12890625 399.484375 C157.91789872 401.79453085 155.82663951 404.1473322 153.765625 406.58984375 C150.33294464 410.53988981 146.51602756 413.8534406 142.515625 417.21484375 C141.54496094 418.06175781 140.57429688 418.90867187 139.57421875 419.78125 C132.22629755 426.16654179 124.67300203 431.8788896 116.515625 437.21484375 C115.04609375 438.17970703 115.04609375 438.17970703 113.546875 439.1640625 C83.01732865 458.55976656 49.35307113 470.50871391 13.515625 475.21484375 C12.76394043 475.31796875 12.01225586 475.42109375 11.23779297 475.52734375 C-24.66995853 479.82491606 -63.4467555 475.70970788 -97.03027344 462.31152344 C-97.78083008 462.0230957 -98.53138672 461.73466797 -99.3046875 461.4375 C-99.94680176 461.17718994 -100.58891602 460.91687988 -101.25048828 460.64868164 C-106.72346657 459.58578739 -112.37224052 461.63007005 -117.62109375 463.10546875 C-119.00230563 463.48768338 -120.38374452 463.86907841 -121.76538086 464.24975586 C-122.4833786 464.44842255 -123.20137634 464.64708923 -123.94113159 464.85177612 C-162.3139174 475.39763839 -210.7169246 486.87718411 -247.98046875 466.875 C-260.88357411 458.80217325 -268.05334329 447.85135858 -271.87792969 433.26611328 C-272.94756089 427.88436981 -272.97106956 422.56098125 -272.921875 417.08984375 C-272.91430176 415.90350342 -272.90672852 414.71716309 -272.89892578 413.49487305 C-272.72039173 403.91723781 -271.52077968 395.28477402 -268.484375 386.21484375 C-268.27006836 385.5604834 -268.05576172 384.90612305 -267.83496094 384.23193359 C-266.24397233 379.47633664 -264.43033269 374.83551075 -262.484375 370.21484375 C-262.2064209 369.55049316 -261.9284668 368.88614258 -261.64208984 368.20166016 C-256.92439288 357.12799202 -250.89095195 347.03762118 -244.4375 336.89453125 C-243.93597412 336.0859668 -243.43444824 335.27740234 -242.91772461 334.44433594 C-241.484375 332.21484375 -241.484375 332.21484375 -240.08422852 330.43066406 C-238.2206698 327.88653083 -237.37571222 325.93726891 -237.84814453 322.79638672 C-238.73522919 319.86779217 -239.79346466 317.05910022 -240.921875 314.21484375 C-246.8365762 298.0260598 -250.61114341 281.357091 -252.484375 264.21484375 C-252.59523437 263.27253906 -252.70609375 262.33023437 -252.8203125 261.359375 C-258.78401052 200.35235606 -240.30161953 138.14072017 -201.921875 90.46484375 C-198.21843418 86.01416 -194.37682036 81.70080723 -190.47265625 77.42578125 C-188.8883368 75.66404292 -187.39046502 73.88395588 -185.921875 72.02734375 C-183.36416994 69.07614561 -180.65133842 66.62753411 -177.6796875 64.10546875 C-176.22940195 62.85646839 -174.80628142 61.57513283 -173.4140625 60.26171875 C-130.92601063 20.29038075 -72.4166657 1.11482368 -14.91845703 0.35668945 C-12.47844964 0.28585538 -12.47844964 0.28585538 -10.13916016 -0.34521484 C-6.65704588 -0.92225824 -3.46063937 -0.48415749 0 0 Z M-47.484375 17.21484375 C-48.75667969 17.40949219 -50.02898437 17.60414062 -51.33984375 17.8046875 C-87.97626121 23.49960339 -123.37768597 38.07333372 -152.484375 61.21484375 C-153.309375 61.84777344 -154.134375 62.48070312 -154.984375 63.1328125 C-161.67821142 68.33555395 -167.88645867 74.02563276 -174.0390625 79.84863281 C-175.25334594 80.99645885 -176.47714597 82.1342056 -177.703125 83.26953125 C-206.41306745 110.68517302 -225.48040781 150.0243856 -234.796875 188.02734375 C-235.03962158 189.01653809 -235.28236816 190.00573242 -235.5324707 191.02490234 C-238.9401631 205.6368752 -239.80950353 219.75473441 -239.74511719 234.69360352 C-239.73440438 237.64425256 -239.74506785 240.59429129 -239.7578125 243.54492188 C-239.77455336 265.28492448 -236.26026841 285.41746758 -229.984375 306.21484375 C-229.69989502 307.15787354 -229.41541504 308.10090332 -229.12231445 309.07250977 C-227.42765424 314.5467114 -225.48340507 319.73733048 -223.04101562 324.92578125 C-222.29817811 327.98053763 -223.07655765 329.45988343 -224.484375 332.21484375 C-225.58591095 333.78846654 -226.7373081 335.32773549 -227.921875 336.83984375 C-240.72080516 354.15195905 -252.42022599 375.18761633 -257.484375 396.21484375 C-257.65807617 396.87097656 -257.83177734 397.52710938 -258.01074219 398.203125 C-259.47772563 404.0918302 -259.78724121 409.66166243 -259.734375 415.71484375 C-259.74210937 416.60042969 -259.74984375 417.48601562 -259.7578125 418.3984375 C-259.72347979 430.08872572 -256.98611314 440.66292063 -248.921875 449.46484375 C-233.8410638 463.34254757 -212.54367839 464.11429573 -193.18457031 463.35205078 C-186.88017605 463.03170091 -180.70861042 462.27145791 -174.484375 461.21484375 C-172.96070313 460.96492676 -172.96070313 460.96492676 -171.40625 460.70996094 C-151.74809844 457.46165336 -132.49591781 453.5853159 -113.65991211 447.00610352 C-106.89626733 444.72888905 -103.00286603 445.93498535 -96.50976562 448.48730469 C-88.29881759 451.70102996 -80.03440184 454.31091463 -71.484375 456.46484375 C-70.57389404 456.69840576 -69.66341309 456.93196777 -68.7253418 457.17260742 C-51.99191472 461.24849313 -35.67812508 462.76901165 -18.484375 462.65234375 C-17.50058868 462.6486377 -16.51680237 462.64493164 -15.50320435 462.64111328 C23.24597279 462.43400121 58.70084338 453.2088256 92.890625 434.83984375 C93.61378906 434.45465576 94.33695312 434.06946777 95.08203125 433.67260742 C96.61605164 432.81684804 98.12597818 431.91702696 99.61450195 430.984375 C101.23621534 429.99521581 102.87650116 429.0310458 104.56918335 428.16894531 C114.30291798 423.29861608 114.30291798 423.29861608 120.45703125 414.75592041 C121.66204601 408.88506614 121.55032175 403.05667679 121.23754883 397.09570312 C121.07751261 393.95281735 121.05300196 390.83017721 121.04882812 387.68359375 C121.00526332 385.66778336 120.95409308 383.6521199 120.89453125 381.63671875 C120.88249161 380.70945984 120.87045197 379.78220093 120.85804749 378.82684326 C120.45250724 372.23840417 118.36933526 369.17679009 113.45404053 364.82084656 C112.8143634 364.29086563 112.17468628 363.7608847 111.515625 363.21484375 C110.71511719 362.46332031 109.91460937 361.71179688 109.08984375 360.9375 C108.15591797 360.11572266 108.15591797 360.11572266 107.203125 359.27734375 C106.56761719 358.71144531 105.93210937 358.14554687 105.27734375 357.5625 C103.44772187 356.01152304 103.44772187 356.01152304 100.515625 355.21484375 C100.845625 338.38484375 101.175625 321.55484375 101.515625 304.21484375 C104.155625 304.54484375 106.795625 304.87484375 109.515625 305.21484375 C111.825625 319.07484375 114.135625 332.93484375 116.515625 347.21484375 C122.27 348.69984375 122.27 348.69984375 128.140625 350.21484375 C139.82102789 353.29413509 151.09529589 357.08198803 162.34106445 361.47802734 C164.71040436 362.28084174 167.05562852 362.77287005 169.515625 363.21484375 C181.58330491 347.93460741 189.21766304 329.4719357 195.515625 311.21484375 C195.80308594 310.39209961 196.09054687 309.56935547 196.38671875 308.72167969 C200.21073789 297.6593386 202.76989634 286.77596069 204.515625 275.21484375 C204.82306641 273.590625 204.82306641 273.590625 205.13671875 271.93359375 C206.88737117 262.3714095 206.69964086 252.89612264 206.515625 243.21484375 C202.02557753 243.79203969 198.45062175 244.99777232 194.328125 246.83984375 C175.52382334 254.73535694 149.69067282 263.60356528 129.7265625 256.16015625 C128.63214844 255.69222656 128.63214844 255.69222656 127.515625 255.21484375 C128.010625 254.14234375 128.505625 253.06984375 129.015625 251.96484375 C131.35993686 245.72075245 131.74519304 238.47256525 129.37890625 232.203125 C128.30070068 228.47087496 128.96339624 227.09541565 130.390625 223.52734375 C136.04564979 205.50794273 134.29639327 181.61107604 125.89453125 164.70703125 C119.92244652 153.91329172 112.815555 144.58014601 100.578125 141.02734375 C95.92604691 139.59532651 92.00051507 137.28719675 87.828125 134.83984375 C78.50577283 129.4056427 68.88450299 126.13068208 58.515625 123.21484375 C59.34707031 122.74175781 60.17851562 122.26867187 61.03515625 121.78125 C68.24851427 117.731293 68.24851427 117.731293 72.453125 110.96484375 C72.80882261 109.38185364 73.16286922 107.79849202 73.515625 106.21484375 C80.45224708 87.05275746 90.71243497 73.10782391 108.515625 63.21484375 C111.18804713 61.98982105 113.69631212 61.06063762 116.515625 60.21484375 C112.86513287 56.33705683 109.08823249 53.31857893 104.640625 50.40234375 C103.9791748 49.96857422 103.31772461 49.53480469 102.63623047 49.08789062 C88.1106956 39.70056987 72.69272336 33.24854994 56.515625 27.21484375 C55.68015137 26.90240723 54.84467773 26.5899707 53.98388672 26.26806641 C31.23434963 17.95582779 6.80593379 15.01054098 -17.296875 15.02734375 C-17.95867767 15.02761566 -18.62048035 15.02788757 -19.30233765 15.02816772 C-28.90325549 15.04629279 -38.03593942 15.44950737 -47.484375 17.21484375 Z " fill="#FEFEFD" transform="translate(272.484375,17.78515625)"/>
<path d="M0 0 C0.54269531 0.4125 1.08539063 0.825 1.64453125 1.25 C12.25695729 10.44903296 16.47918231 25.69936983 19 39 C19 39.66 19 40.32 19 41 C19.95519531 40.95359375 20.91039062 40.9071875 21.89453125 40.859375 C35.25387173 40.48643229 45.97002082 43.47885119 55.97265625 52.84765625 C64.23018689 61.66620808 66.38040727 71.15205803 66.28125 82.9765625 C65.71178274 94.50827447 61.81173765 105.61757554 57 116 C56.22777156 117.74938482 55.45681524 119.4993321 54.6875 121.25 C54.12647564 122.50066299 53.56459762 123.75094605 53 125 C53.86625 125.0825 54.7325 125.165 55.625 125.25 C62.25506731 126.72334829 66.12159335 130.72105761 70 136 C73.50328839 143.09202283 73.05683441 152.36575338 70.9375 159.875 C68.56271875 165.8903657 64.39574848 170.80212576 58.625 173.6875 C55.2143111 176.69215451 55.47047652 178.30198981 55.125 182.75 C55.05619118 184.83261356 55.00602237 186.91625874 55 189 C54.67 189 54.34 189 54 189 C54 185.37 54 181.74 54 178 C52.79730469 178.49628906 51.59460938 178.99257813 50.35546875 179.50390625 C-1.70473771 200.45249755 -1.70473771 200.45249755 -26 191 C-25.7834375 190.48953125 -25.566875 189.9790625 -25.34375 189.453125 C-22.59543611 182.27697206 -21.3601518 174.33911724 -24.13671875 166.9921875 C-25.21428106 163.25728826 -24.55305543 161.88263857 -23.125 158.3125 C-17.47370002 140.30496787 -19.20618541 116.37992866 -27.625 99.4921875 C-33.21940591 89.35232679 -40.27784636 80.27866829 -51.8125 76.875 C-56.50458628 75.40969731 -60.47381445 73.09706228 -64.6875 70.625 C-74.25557838 65.05327261 -84.16455549 61.38379779 -95 59 C-93.12722462 56.88294957 -91.38843505 55.20241386 -88.87109375 53.890625 C-84.93539923 51.7898589 -82.50771605 50.26679315 -80.80859375 46.02734375 C-80.20952262 43.6444913 -79.63260285 41.25599503 -79.07421875 38.86328125 C-74.92414414 22.36788864 -62.36442039 8.05313459 -48.25 -0.75 C-33.28912779 -9.07198517 -14.08718227 -10.79018217 0 0 Z " fill="#F6ECE4" transform="translate(425,83)"/>
<path d="M0 0 C0 3 0 3 -2.1875 6.25 C-7.52360059 14.47458809 -10.77957614 25.20688273 -11 35 C-11.05800781 36.72863281 -11.05800781 36.72863281 -11.1171875 38.4921875 C-11.34825927 51.25248405 -9.54220594 61.4521284 -4 73 C-3.67 73.33 -3.34 73.66 -3 74 C-2.56866667 80.46999998 -3.832721 86.65292045 -5 93 C-3.99582031 92.33613281 -2.99164063 91.67226563 -1.95703125 90.98828125 C20.62647781 76.30636372 20.62647781 76.30636372 31 78 C36.33739473 79.98844117 39.45333824 82.90667648 42 88 C42.58942691 95.36783638 42.10010967 101.28309571 39 108 C39.99 108.66 40.98 109.32 42 110 C41.175 110.185625 40.35 110.37125 39.5 110.5625 C36.17498471 111.92813128 34.78276831 112.97092927 32.25 115.375 C25.71313441 121.36191896 19.8032995 123 11 123 C11 133.56 11 144.12 11 155 C-5.17 155 -21.34 155 -38 155 C-33 150 -33 150 -30.71875 147.89453125 C-25.28445728 142.79509811 -21.85827729 137.87997397 -19 131 C-19.72703125 131.58007812 -19.72703125 131.58007812 -20.46875 132.171875 C-32.48732659 141.5093845 -43.91318417 144.2521996 -59.0625 144.3125 C-60.06732422 144.31797852 -61.07214844 144.32345703 -62.10742188 144.32910156 C-65.0819392 144.30093011 -68.0309677 144.18041936 -71 144 C-71.98468262 143.94875977 -72.96936523 143.89751953 -73.98388672 143.84472656 C-77.97089731 143.4172338 -80.89853339 143.067342 -83.84399414 140.21313477 C-85.43602985 137.91990266 -86.73473552 135.61270463 -88 133.125 C-88.89480815 131.50203852 -89.79060916 129.87962396 -90.6875 128.2578125 C-91.06261719 127.5373877 -91.43773437 126.81696289 -91.82421875 126.07470703 C-93.05706767 123.89930211 -94.46140055 121.96814361 -96 120 C-96.20753906 121.03898437 -96.41507812 122.07796875 -96.62890625 123.1484375 C-99.07491433 134.5439897 -102.67559085 143.87420603 -112.73046875 150.69921875 C-124.48198575 157.43459768 -138.53690475 161.03835034 -152 162 C-150.27181968 157.76857666 -147.2863695 154.64397678 -144.3125 151.25 C-143.50002808 150.31401978 -143.50002808 150.31401978 -142.67114258 149.35913086 C-141.59795003 148.12379553 -140.52304596 146.88994462 -139.44628906 145.65771484 C-138.25697997 144.29454659 -137.07647671 142.92370056 -135.8984375 141.55078125 C-134.2878975 139.67917198 -132.65173248 137.83525831 -131 136 C-130.51015625 135.4328125 -130.0203125 134.865625 -129.515625 134.28125 C-121.38880919 125.43026249 -110.00743954 119.4703683 -99 115 C-121.21715197 121.29485972 -136.38871286 139.43166417 -150.22265625 156.91796875 C-152 159 -152 159 -154 160 C-150.35133023 144.02906827 -143.44240587 128.89810593 -130 119 C-119.74800524 112.82372181 -110.84571425 111.70426788 -99 112 C-99.34933594 111.01 -99.69867188 110.02 -100.05859375 109 C-100.51863888 107.66680798 -100.9782511 106.33346651 -101.4375 105 C-101.66759766 104.35160156 -101.89769531 103.70320313 -102.13476562 103.03515625 C-109.87551777 80.37382388 -103.28658971 56.09350084 -94 35 C-93.43293458 33.61461251 -92.86923651 32.22784281 -92.30859375 30.83984375 C-89.10418341 23.03353661 -85.76617145 16.30948852 -80 10 C-74.76549412 10.56792811 -70.80980787 12.30880574 -66.1796875 14.640625 C-65.4397757 15.00468445 -64.69986389 15.3687439 -63.93753052 15.74383545 C-61.5796389 16.90521329 -59.22706201 18.07686681 -56.875 19.25 C-53.79143225 20.780872 -50.70549758 22.30684296 -47.6171875 23.828125 C-46.87571472 24.19369507 -46.13424194 24.55926514 -45.37030029 24.93591309 C-39.3450508 27.88296042 -33.24287587 30.54193442 -27 33 C-26.86513184 32.23123535 -26.73026367 31.4624707 -26.59130859 30.67041016 C-23.87944859 18.42337271 -10.02568068 6.46099422 0 0 Z " fill="#FD8D66" transform="translate(361,165)"/>
<path d="M0 0 C0.45490131 13.09104885 -1.43255197 20.1445003 -9.59765625 30.7578125 C-12.73465531 34.91116408 -15.42436532 39.31159953 -18.06640625 43.79296875 C-20 47 -20 47 -22.08984375 49.92578125 C-27.02264325 57.14427398 -27.49381501 62.66407132 -26.46875 71.0625 C-26.0291143 74.75543986 -25.90245388 78.28511167 -25.9375 82 C-25.94652344 82.969375 -25.95554687 83.93875 -25.96484375 84.9375 C-25.97644531 85.618125 -25.98804688 86.29875 -26 87 C-25.34 87 -24.68 87 -24 87 C-24.0721875 86.12859375 -24.144375 85.2571875 -24.21875 84.359375 C-24.82711659 76.55200382 -25.1290649 68.829937 -25 61 C-20.64667264 60.15976812 -16.55557481 59.89229005 -12.125 59.9375 C-10.97257812 59.94652344 -9.82015625 59.95554688 -8.6328125 59.96484375 C-7.76398438 59.97644531 -6.89515625 59.98804688 -6 60 C-5.88011719 59.27296875 -5.76023437 58.5459375 -5.63671875 57.796875 C-4.53509271 52.95783054 -2.7486323 49.31945079 1 46 C5.86569356 44.18536081 9.91443956 43.99920522 15 45 C18.99670029 47.36100442 22.15325409 50.29551893 25.43212891 53.52880859 C28.1930823 56.11951322 31.22621192 58.35292539 34.25 60.625 C35.35965206 61.47099088 36.469053 62.31731132 37.578125 63.1640625 C38.77695312 64.07285156 38.77695312 64.07285156 40 65 C39.25 69.75 39.25 69.75 37 72 C34.04614344 72.20739214 31.1443248 72.31903397 28.1875 72.375 C16.31487577 72.81765889 7.1251475 75.6135587 -3.14453125 81.60546875 C-8.15951197 84.05464538 -13.5378878 85.01004644 -19 86 C-18.67 86.33 -18.34 86.66 -18 87 C-10.02540933 85.53241633 -2.72412316 83.13906603 4.4375 79.375 C14.5896583 74.08364071 24.97500903 72.11739838 36.453125 74.51171875 C36.96359375 74.67285156 37.4740625 74.83398438 38 75 C38 75.99 38 76.98 38 78 C36.98421875 78.52207031 35.9684375 79.04414063 34.921875 79.58203125 C18.22009929 88.41360436 7.13970754 100.63997098 -4.6953125 115.21875 C-19.43313001 133.00404842 -19.43313001 133.00404842 -31.3125 134.8125 C-39.58134143 136.25055938 -45.90935106 140.36614973 -52 146 C-52.33 146.66 -52.66 147.32 -53 148 C-50.03 146.02 -50.03 146.02 -47 144 C-48.32423416 146.73355967 -49.76584806 149.32006615 -51.3828125 151.890625 C-52.04990234 152.95410156 -52.04990234 152.95410156 -52.73046875 154.0390625 C-53.42076172 155.13347656 -53.42076172 155.13347656 -54.125 156.25 C-54.59292969 156.99507812 -55.06085938 157.74015625 -55.54296875 158.5078125 C-56.69368508 160.33956503 -57.84662444 162.1699207 -59 164 C-66.81803034 159.7932608 -74.52571855 155.42185275 -82.1875 150.9375 C-83.21552734 150.33873047 -84.24355469 149.73996094 -85.30273438 149.12304688 C-90.92790509 145.83719859 -96.49684196 142.48643186 -102 139 C-101.18536386 135.11469474 -99.75066898 133.33620846 -97 130.4375 C-85.8473509 118.72625165 -85.8473509 118.72625165 -78.9375 104.4375 C-77.08719346 98.17438692 -77.08719346 98.17438692 -76 96 C-75.93049459 94.45976004 -75.91547643 92.91665012 -75.9375 91.375 C-75.94652344 90.55773437 -75.95554688 89.74046875 -75.96484375 88.8984375 C-75.97644531 88.27195312 -75.98804688 87.64546875 -76 87 C-77.65 86.67 -79.3 86.34 -81 86 C-83.35800504 88.28431738 -84.88720897 90.0081024 -85.265625 93.3359375 C-85.251535 95.56920205 -85.17460201 97.77382441 -85 100 C-88.73628956 100.3558371 -90.78263521 100.10655137 -94.1875 98.4375 C-98.33322685 94.84453673 -99.67684632 91.6729996 -100.31640625 86.3828125 C-100.58693578 80.08209243 -99.81176169 75.12496007 -96 70 C-93.24213381 67.17881546 -90.20949318 64.17140136 -86.12744141 63.85473633 C-83.62637124 63.82978465 -81.1262204 63.81068686 -78.625 63.8125 C-77.72555664 63.81185547 -76.82611328 63.81121094 -75.89941406 63.81054688 C-69.07740424 63.86443708 -62.667312 64.48223792 -56 66 C-56.0928125 65.14277344 -56.185625 64.28554687 -56.28125 63.40234375 C-56.38953125 61.68724609 -56.38953125 61.68724609 -56.5 59.9375 C-56.5928125 58.81214844 -56.685625 57.68679687 -56.78125 56.52734375 C-55.92176671 52.6467767 -55.55050527 52.30493511 -52.62451172 49.95117188 C-47.70199289 45.8145811 -43.21317607 41.3125268 -38.69627762 36.74087715 C-37.19409618 35.22105875 -35.68818666 33.7050229 -34.1812439 32.18992615 C-29.90374504 27.88816459 -25.63220614 23.58051852 -21.36474609 19.26879883 C-18.74024616 16.61759569 -16.11095809 13.97122107 -13.47861862 11.32780266 C-12.47914922 10.32211822 -11.48158226 9.31453944 -10.48595047 8.30505562 C-9.10274895 6.90274442 -7.71291648 5.50698301 -6.32275391 4.11157227 C-5.13983261 2.91746483 -5.13983261 2.91746483 -3.93301392 1.69923401 C-2 0 -2 0 0 0 Z " fill="#FD8E67" transform="translate(209,154)"/>
<path d="M0 0 C1.20584378 39.07827076 -10.34849949 88.42137959 -36 119 C-39.2157346 120.26742977 -41.00480453 119.90761727 -44.140625 118.59375 C-44.95273437 118.26511963 -45.76484375 117.93648926 -46.6015625 117.59790039 C-47.47554687 117.23559326 -48.34953125 116.87328613 -49.25 116.5 C-57.39228842 113.25274351 -65.57525421 110.4850332 -74 108.0625 C-75.0199707 107.76859375 -76.03994141 107.4746875 -77.09082031 107.171875 C-81.3935769 105.95283285 -85.60748207 104.87850359 -90 104 C-92.31 90.14 -94.62 76.28 -97 62 C-99.64 61.67 -102.28 61.34 -105 61 C-105.33 77.83 -105.66 94.66 -106 112 C-104.02 112.99 -104.02 112.99 -102 114 C-95.59641703 117.9959649 -88.46576099 123.16109881 -86.20001221 130.64099121 C-85.141316 137.71008804 -85.62690973 144.77076932 -86.0625 151.875 C-86.13789029 154.02710895 -86.20630524 156.17947411 -86.26757812 158.33203125 C-86.43141152 163.56035963 -86.68102049 168.77895877 -87 174 C-87.66 174 -88.32 174 -89 174 C-88.95174072 172.71013184 -88.90348145 171.42026367 -88.85375977 170.09130859 C-88.69284447 165.2417056 -88.63378502 160.39499792 -88.60327148 155.54296875 C-88.5764063 153.45552809 -88.52300189 151.36823531 -88.44116211 149.28222656 C-87.70774263 136.03434618 -87.70774263 136.03434618 -93.29638672 124.52050781 C-97.54032648 120.27214233 -102.22444274 116.56371364 -107.45922852 113.61450195 C-109.54339734 111.43059949 -109.4363528 109.54079704 -109.40258789 106.6103363 C-109.37285889 105.89458939 -109.34312988 105.17884247 -109.3125 104.44140625 C-109.29630615 103.69145889 -109.2801123 102.94151154 -109.26342773 102.1688385 C-109.2021142 99.77747091 -109.10671499 97.38974873 -109 95 C-108.95069336 93.85757843 -108.95069336 93.85757843 -108.90039062 92.69207764 C-108.66079796 87.43643736 -108.33896765 82.18751743 -108 76.9375 C-107.90316832 75.37698268 -107.80681243 73.81643577 -107.7109375 72.25585938 C-107.47940491 68.50355131 -107.24156702 64.75167709 -107 61 C-107.87470947 61.03029297 -108.74941895 61.06058594 -109.65063477 61.09179688 C-136.77138277 62.00007207 -163.86579411 62.11552521 -191 62 C-191 61.34 -191 60.68 -191 60 C-188.36 60 -185.72 60 -183 60 C-183 56.37 -183 52.74 -183 49 C-182.175 48.97421875 -181.35 48.9484375 -180.5 48.921875 C-163.99714652 48.11146702 -149.25150109 44.38034252 -136 34 C-138.44680007 43.78720029 -146.76115433 52.50743622 -155 58 C-139.16 58.33 -123.32 58.66 -107 59 C-107 48.44 -107 37.88 -107 27 C-103.7 26.34 -100.4 25.68 -97 25 C-91.86208901 23.12425472 -87.52295025 20.86558666 -83.9375 16.6875 C-80.43199098 13.48033217 -78.89982802 13.39565965 -74.34375 13.59375 C-72 14 -72 14 -69.1875 15.0546875 C-65.44132709 16.16568486 -62.31806926 16.07486449 -58.5 15.625 C-57.3721106 15.49496582 -57.3721106 15.49496582 -56.22143555 15.36230469 C-39.11962512 13.03580142 -21.26305484 8.05327238 -5.51953125 1.03125 C-3 0 -3 0 0 0 Z " fill="#2C0100" transform="translate(479,261)"/>
<path d="M0 0 C0.70253906 0.54785156 1.40507812 1.09570312 2.12890625 1.66015625 C4.3148286 3.22544094 6.14166474 3.70195019 8.75 4.3125 C18.82271526 7.19252856 26.39263875 15.03930376 31.73046875 23.859375 C41.30129892 42.10303152 43.75920882 66.86605339 38 86.6875 C37.37230134 88.47251807 36.72385391 90.25176356 36 92 C33 92 33 92 30.25 90.5 C24.25429358 87.73275088 19.89837933 88.85448823 13.875 91 C7.679455 93.49542785 2.25606211 96.70143638 -3.3203125 100.328125 C-6 102 -6 102 -9 103 C-9.08226512 98.80447907 -8.81929651 95.09648253 -8 91 C-7.29707566 85.0251431 -9.01879519 81.47751071 -11.7578125 76.34765625 C-18.54667329 63.51713633 -17.25213852 45.69233703 -14 32 C-11.82130084 25.12516484 -9.33923466 18.78564621 -5 13 C-5 12.67 -5 12.34 -5 12 C-16.04446658 20.18108635 -26.51407384 29.54222151 -31 43 C-35.83235353 42.35078947 -39.79319237 40.37795662 -44.1328125 38.28125 C-44.92412567 37.9044812 -45.71543884 37.5277124 -46.5307312 37.13952637 C-49.06469739 35.93159447 -51.59489561 34.71599669 -54.125 33.5 C-55.77188666 32.7130209 -57.4190201 31.92655798 -59.06640625 31.140625 C-62.36220022 29.56759356 -65.65663522 27.99176532 -68.95019531 26.4140625 C-76.95434667 22.58317659 -84.97784257 18.79299295 -93 15 C-88.10305005 4.37575378 -73.98271044 -2.68814866 -64 -8 C-62.97519531 -8.55171875 -61.95039063 -9.1034375 -60.89453125 -9.671875 C-40.05200607 -19.27076111 -18.36149574 -10.90285089 0 0 Z " fill="#2D0101" transform="translate(365,155)"/>
<path d="M0 0 C1.20584378 39.07827076 -10.34849949 88.42137959 -36 119 C-39.2157346 120.26742977 -41.00480453 119.90761727 -44.140625 118.59375 C-45.35878906 118.10080444 -45.35878906 118.10080444 -46.6015625 117.59790039 C-47.91253906 117.0544397 -47.91253906 117.0544397 -49.25 116.5 C-57.39228842 113.25274351 -65.57525421 110.4850332 -74 108.0625 C-75.0199707 107.76859375 -76.03994141 107.4746875 -77.09082031 107.171875 C-81.37782266 105.95729629 -85.62036638 104.83242367 -90 104 C-90.33 101.03 -90.66 98.06 -91 95 C-89.88882812 95.03480469 -88.77765625 95.06960938 -87.6328125 95.10546875 C-73.23028219 95.4263172 -63.48969658 93.30508775 -52.3125 83.6875 C-44.92872054 75.1063509 -40.40212561 66.69634795 -40.5 55.25 C-40.50858032 54.07256226 -40.50858032 54.07256226 -40.51733398 52.87133789 C-40.85096021 41.90660535 -45.42208669 32.85800045 -53 25 C-55.5552996 22.81176002 -58.19767206 20.85806526 -61 19 C-61.99 18.34 -62.98 17.68 -64 17 C-59.04623658 15.65835574 -54.12285514 14.67270727 -49.0625 13.8125 C-34.16576156 11.15185135 -18.76921132 7.29792254 -5.0390625 0.84765625 C-3 0 -3 0 0 0 Z " fill="#968219" transform="translate(479,261)"/>
<path d="M0 0 C2.64 0 5.28 0 8 0 C9.43380373 4.74761882 10.49545511 9.38283384 11.2890625 14.2890625 C11.39721283 14.95537689 11.50536316 15.62169128 11.61679077 16.30819702 C11.84230531 17.70448009 12.06572169 19.10110353 12.28710938 20.49804688 C12.62537174 22.62734004 12.97238745 24.75507928 13.3203125 26.8828125 C13.53958595 28.24731182 13.75835349 29.61189255 13.9765625 30.9765625 C14.17330566 32.20455566 14.37004883 33.43254883 14.57275391 34.69775391 C14.9379933 37.52074136 15.08812459 40.16050474 15 43 C16.1240625 43.1134375 17.248125 43.226875 18.40625 43.34375 C23.24341802 43.9547607 27.82197071 45.14957628 32.5 46.5 C33.83260864 46.88115967 33.83260864 46.88115967 35.19213867 47.27001953 C46.34669666 50.55969176 57.17515939 54.76843285 68 59 C62.71177554 68.63764053 55.49632871 76.58136392 48.10546875 84.671875 C46.24933287 86.72429983 44.46629008 88.81845709 42.6875 90.9375 C36.66980302 97.82085176 29.93474793 104.13709129 22.29638672 109.16943359 C21.49047089 109.70184662 20.68455505 110.23425964 19.85421753 110.7828064 C19.24232574 111.18448029 18.63043396 111.58615417 18 112 C18.0030162 111.45178085 18.00603241 110.90356171 18.00914001 110.33872986 C18.03378116 104.61134922 18.00948029 98.885632 17.95727539 93.15844727 C17.94416899 91.02372178 17.94337078 88.88888266 17.95532227 86.75415039 C17.97037968 83.67741938 17.94058175 80.60381875 17.90234375 77.52734375 C17.91659897 76.57915268 17.93085419 75.63096161 17.94554138 74.65403748 C17.83427936 69.51445624 17.27782419 66.69580713 13.58911133 62.97607422 C12.4120152 61.96125403 11.21734548 60.96617043 10 60 C9.23171875 59.29230469 8.4634375 58.58460938 7.671875 57.85546875 C7.03765625 57.30503906 6.4034375 56.75460937 5.75 56.1875 C5.10546875 55.62417969 4.4609375 55.06085938 3.796875 54.48046875 C1.85907919 52.83312428 1.85907919 52.83312428 -1 51 C-1.2805772 48.3226017 -1.37189592 45.88000586 -1.328125 43.203125 C-1.32625183 42.41790466 -1.32437866 41.63268433 -1.32244873 40.82366943 C-1.31571233 39.15242297 -1.30176651 37.48119269 -1.28125 35.81005859 C-1.25062989 33.30160186 -1.24032783 30.79377976 -1.234375 28.28515625 C-1.18781209 18.81595392 -0.83049986 9.43679606 0 0 Z " fill="#FBBE5F" transform="translate(374,322)"/>
<path d="M0 0 C0.77206787 0.15686279 1.54413574 0.31372559 2.33959961 0.4753418 C10.56698197 2.33003876 19.2918029 5.88335272 24.1953125 13.1015625 C26.65201767 17.55111941 27.60504343 21.10037927 26.9375 26.25 C24.98843303 31.07626106 23.13679512 34.12215635 18.5 36.5 C15.6549155 37.33270766 14.62124062 37.44514493 11.9375 36.25 C10.8125 33.921875 10.8125 33.921875 9.9375 31 C7.97568631 24.99548158 7.97568631 24.99548158 3.9375 20.25 C0.34364946 19.27126462 0.34364946 19.27126462 -3.0625 19.25 C-4.50935009 20.48053455 -4.50935009 20.48053455 -4.375 24.1875 C-4.35669252 28.03207006 -3.60142949 30.79960794 -2.0625 34.3125 C-0.02267764 38.97287706 0.55979261 42.1827602 -0.0625 47.25 C-1.2890625 48.98046875 -1.2890625 48.98046875 -3.0625 50.25 C-8.63562078 50.69124536 -14.50784015 49.5200122 -19.0625 46.25 C-20.19591166 43.09185293 -20.17581471 41.57616863 -19.06640625 38.3828125 C-18.59074219 37.39023438 -18.11507812 36.39765625 -17.625 35.375 C-15.5245253 30.63726263 -14.27994137 27.39252812 -15.0625 22.25 C-15.7225 21.59 -16.3825 20.93 -17.0625 20.25 C-19.0425 20.58 -21.0225 20.91 -23.0625 21.25 C-23.7225 25.54 -24.3825 29.83 -25.0625 34.25 C-30.64084863 33.87180687 -34.10697516 33.55454174 -38.0625 29.25 C-40.94637758 23.20758984 -40.73367528 17.02718431 -39.0625 10.6875 C-33.09499661 -5.94655533 -13.80107491 -2.86731231 0 0 Z " fill="#F4E9E0" transform="translate(145.0625,118.75)"/>
<path d="M0 0 C5.55605992 3.12001341 10.05089089 6.91649443 12.875 12.6875 C13.87230031 18.11724614 14.29447414 22.00309117 11.8125 27.0625 C9.18507199 30.03564222 7.13809118 31.36227831 3.4375 32.75 C2.1175 32.75 0.7975 32.75 -0.5625 32.75 C-0.94921875 31.77417969 -1.3359375 30.79835937 -1.734375 29.79296875 C-2.25979781 28.50755936 -2.78587396 27.2224169 -3.3125 25.9375 C-3.56515625 25.29490234 -3.8178125 24.65230469 -4.078125 23.99023438 C-5.63822323 20.2264974 -6.9121023 17.70021247 -10.5625 15.75 C-13.68836875 15.41602213 -13.68836875 15.41602213 -16.5625 15.75 C-17.88570713 16.86376143 -17.88570713 16.86376143 -17.875 19.6875 C-17.85430153 23.06824954 -16.93410308 25.48972137 -15.5625 28.5625 C-13.38939123 33.59455684 -12.66175237 38.30361895 -13.5625 43.75 C-15.5625 45.75 -15.5625 45.75 -19.25 46 C-24.17114169 45.87450641 -28.97540287 45.33709713 -32.5625 41.75 C-33.24072671 36.21114851 -31.80590746 32.86060964 -29.453125 28.0390625 C-28.07172703 24.48862736 -28.28839347 21.5189648 -28.5625 17.75 C-30.85544488 16.89025199 -30.85544488 16.89025199 -33.5625 16.75 C-36.0993109 17.9482517 -36.0993109 17.9482517 -37.5625 20.75 C-37.89377136 24.11003806 -37.79365097 27.38546928 -37.5625 30.75 C-42.86127676 31.25464541 -45.46966575 30.11521927 -49.5625 26.75 C-53.86729668 20.94210329 -53.40138805 14.68846658 -52.5625 7.75 C-50.6100734 2.50335569 -47.23173258 -1.17813646 -42.5625 -4.25 C-30.19363776 -8.37295408 -11.65106469 -5.32469472 0 0 Z " fill="#F5EAE1" transform="translate(318.5625,80.25)"/>
<path d="M0 0 C6.41031014 3.6822583 11.41089553 9.05835267 13.734375 16.11328125 C14.89994054 25.05831912 12.75412665 31.63235945 7.796875 38.98828125 C3.05889349 43.86983795 -1.83257519 45.23551697 -8.453125 45.55078125 C-14.75355534 45.47507514 -18.73993394 43.42995445 -23.265625 39.11328125 C-28.76587913 32.12611632 -29.93835871 25.89485873 -29.265625 17.11328125 C-27.66454722 10.10856595 -24.28490382 5.1818451 -18.203125 1.30078125 C-12.33866964 -1.73754677 -6.23524897 -2.44034744 0 0 Z " fill="#FF4402" transform="translate(336.265625,242.88671875)"/>
<path d="M0 0 C0.63421875 0.2165625 1.2684375 0.433125 1.921875 0.65625 C2.23211386 6.44737543 2.02441999 11.58267643 -1.078125 16.65625 C-3.703125 18.09375 -3.703125 18.09375 -6.078125 18.65625 C-6.573125 19.15125 -6.573125 19.15125 -7.078125 19.65625 C-6.8925 20.77 -6.706875 21.88375 -6.515625 23.03125 C-6.41351845 27.75367775 -8.66495062 29.95410745 -11.765625 33.34375 C-13.51559647 35.13520227 -15.2864911 36.90646448 -17.078125 38.65625 C-18.02340981 39.5989843 -18.96747683 40.54294171 -19.91015625 41.48828125 C-20.62558594 42.20371094 -21.34101563 42.91914063 -22.078125 43.65625 C-21.68536539 39.80720583 -21.15008018 36.8116732 -19.515625 33.28125 C-17.77078227 28.8812118 -17.7927414 25.31751545 -18.078125 20.65625 C-19.728125 20.32625 -21.378125 19.99625 -23.078125 19.65625 C-25.43613004 21.94056738 -26.96533397 23.6643524 -27.34375 26.9921875 C-27.32966 29.22545205 -27.25272701 31.43007441 -27.078125 33.65625 C-30.81441456 34.0120871 -32.86076021 33.76280137 -36.265625 32.09375 C-40.41135185 28.50078673 -41.75497132 25.3292496 -42.39453125 20.0390625 C-42.66506078 13.73834243 -41.88988669 8.78121007 -38.078125 3.65625 C-28.59210494 -6.04756134 -12.11293131 -3.61380271 0 0 Z " fill="#F5EAE1" transform="translate(151.078125,220.34375)"/>
<path d="M0 0 C3.13613789 14.16862297 5.34440848 26.53545801 -2.66015625 39.73828125 C-10.87913592 50.59003469 -22.43676256 58.11091628 -34 65 C-34.33 65 -34.66 65 -35 65 C-35.32576598 61.6337515 -34.77639628 59.04943259 -33.68359375 55.90625 C-32.58773421 52.71603813 -31.52004996 49.52137518 -30.4921875 46.30859375 C-27.03266198 35.75381776 -14.87176384 0 0 0 Z " fill="#C3B259" transform="translate(93,185)"/>
<path d="M0 0 C1.28133223 3.84399669 0.36846646 5.24243826 -1 9 C-1.27199219 10.02738281 -1.54398437 11.05476563 -1.82421875 12.11328125 C-4.60692083 22.42564779 -8.98197295 29.93624408 -18.23828125 35.59375 C-29.68271608 41.42118499 -43.05581989 46 -56 46 C-54.27181968 41.76857666 -51.2863695 38.64397678 -48.3125 35.25 C-47.77085205 34.62601318 -47.2292041 34.00202637 -46.67114258 33.35913086 C-45.59795003 32.12379553 -44.52304596 30.88994462 -43.44628906 29.65771484 C-42.25697997 28.29454659 -41.07647671 26.92370056 -39.8984375 25.55078125 C-38.2878975 23.67917198 -36.65173248 21.83525831 -35 20 C-34.51015625 19.4328125 -34.0203125 18.865625 -33.515625 18.28125 C-27.3702226 11.58823749 -9.42532489 -3.14177496 0 0 Z " fill="#C3B359" transform="translate(265,281)"/>
<path d="M0 0 C0.64765448 13.75905968 0.47333931 24.63614492 -8.625 35.8125 C-18.09463353 45.52673661 -31.18826552 51.01117584 -44 55 C-44.99 55 -45.98 55 -47 55 C-45.05129959 48.60564412 -41.85343187 43.41612487 -38.375 37.75 C-37.78332031 36.76386719 -37.19164062 35.77773437 -36.58203125 34.76171875 C-30.1397309 24.20079873 -14.8204217 0 0 0 Z " fill="#C3B359" transform="translate(243,61)"/>
<path d="M0 0 C5.60366617 0.74873177 8.92512602 2.11509684 13 6 C18.13713902 12.77468463 19.70264764 18.54313374 19 27 C17.59998177 32.95007746 15.06957973 37.98332511 9.84765625 41.4140625 C3.66742318 45 3.66742318 45 0 45 C-4.49454184 30.61746612 -4.72073795 14.33081162 0 0 Z " fill="#FD4502" transform="translate(259,224)"/>
<path d="M0 0 C0.33 0 0.66 0 1 0 C1 10.89 1 21.78 1 33 C-11.54 33.33 -24.08 33.66 -37 34 C-37 34.33 -37 34.66 -37 35 C-52.51 35 -68.02 35 -84 35 C-84 34.34 -84 33.68 -84 33 C-81.36 33 -78.72 33 -76 33 C-76 29.37 -76 25.74 -76 22 C-75.175 21.97421875 -74.35 21.9484375 -73.5 21.921875 C-56.99714652 21.11146702 -42.25150109 17.38034252 -29 7 C-31.44680007 16.78720029 -39.76115433 25.50743622 -48 31 C-32.16 31.33 -16.32 31.66 0 32 C0 21.44 0 10.88 0 0 Z " fill="#3E0D08" transform="translate(372,288)"/>
<path d="M0 0 C0.66 0.99 1.32 1.98 2 3 C1.34515625 3.20753906 0.6903125 3.41507812 0.015625 3.62890625 C-22.19494336 11.12654161 -37.06864771 28.02709719 -51.22265625 45.91796875 C-53 48 -53 48 -55 49 C-51.35133023 33.02906827 -44.44240587 17.89810593 -31 8 C-20.98443947 1.96616078 -11.54388892 0.60841578 0 0 Z " fill="#C1B057" transform="translate(262,276)"/>
<path d="M0 0 C0.66 0 1.32 0 2 0 C3.36682266 21.57176605 3.36682266 21.57176605 -2.953125 29.69921875 C-3.96632812 30.83810547 -3.96632812 30.83810547 -5 32 C-6.25804077 33.49326268 -7.50784255 34.99349913 -8.75 36.5 C-9.40484375 37.29148438 -10.0596875 38.08296875 -10.734375 38.8984375 C-15.80042152 45.83368049 -19.82648786 53.50476 -24 61 C-21.64684348 60.95505208 -21.64684348 60.95505208 -19 60 C-17.28670043 58.02628041 -15.95119128 56.23546464 -14.56640625 54.05078125 C-13.96577614 53.13718086 -13.96577614 53.13718086 -13.35301208 52.2051239 C-12.50623289 50.90934339 -11.66696694 49.6086265 -10.8347168 48.3034668 C-9.58802063 46.35243873 -8.31516122 44.42082404 -7.03710938 42.49023438 C3.57569824 26.31345882 3.57569824 26.31345882 6.375 7.625 C6.34792969 6.87734375 6.32085937 6.1296875 6.29296875 5.359375 C6.22420707 3.57157133 6.11671547 1.78531443 6 0 C6.66 0 7.32 0 8 0 C9.13640743 3.4092223 9.313287 6.21785106 9.4375 9.8125 C9.49808594 11.01519531 9.55867188 12.21789062 9.62109375 13.45703125 C8.73740628 25.89842057 -0.12010108 37.38927742 -6.875 47.375 C-7.76407144 48.70763301 -8.65209805 50.0409637 -9.5390625 51.375 C-11.68080475 54.59146626 -13.83626699 57.79829025 -16 61 C-13.36 61 -10.72 61 -8 61 C-7.75378906 60.32453125 -7.50757813 59.6490625 -7.25390625 58.953125 C-5.74222457 55.39290273 -3.86482019 52.09521835 -1.9375 48.75 C1.46362545 42.77491737 4.77790145 36.7611001 8 30.6875 C8.38551025 29.9646582 8.77102051 29.24181641 9.16821289 28.49707031 C13.17283676 20.91621158 14.69343672 13.07471195 12.328125 4.58984375 C11.46378646 2.51911921 11.46378646 2.51911921 10 0 C12.39550925 0.66083014 13.69084131 1.45929568 14.93359375 3.6328125 C17.59406482 10.12487108 17.99040123 15.8554375 15.5625 22.4375 C10.59894151 33.83271175 4.35711464 44.70535991 -2.16870117 55.26635742 C-3.75015923 57.83618214 -5.04129418 60.12388253 -6 63 C-15.405 63.495 -15.405 63.495 -25 64 C-24.835 65.69125 -24.67 67.3825 -24.5 69.125 C-23.90986437 76.0902628 -23.90700055 83.01470824 -24 90 C-24.66 90 -25.32 90 -26 90 C-29.46677488 71.29359979 -28.67104667 58.93135007 -17.7734375 43.0703125 C-16.52826273 41.37087607 -15.27159393 39.67975988 -14 38 C-13.50274414 37.33581055 -13.00548828 36.67162109 -12.49316406 35.98730469 C-10.66857202 33.59160595 -8.78827616 31.28568241 -6.76953125 29.05078125 C-2.62274823 24.24490689 -0.99607285 19.92145707 -0.68359375 13.671875 C-0.64169922 12.87265625 -0.59980469 12.0734375 -0.55664062 11.25 C-0.51732422 10.425 -0.47800781 9.6 -0.4375 8.75 C-0.39431641 7.90953125 -0.35113281 7.0690625 -0.30664062 6.203125 C-0.20091457 4.13559329 -0.09998705 2.06781719 0 0 Z " fill="#44110B" transform="translate(209,151)"/>
<path d="M0 0 C1.85625 0.0309375 1.85625 0.0309375 3.75 0.0625 C0.90847702 3.0629893 -2.03747922 5.40972596 -5.4375 7.75 C-19.95532266 18.26290607 -28.33111279 32.34417812 -37.02709961 47.69140625 C-40.04160806 52.95830403 -40.04160806 52.95830403 -42.25 54.0625 C-42.75293438 39.26462304 -37.78071563 23.70156821 -27.75 12.75 C-20.48556116 5.90508802 -10.21899625 -0.1703166 0 0 Z " fill="#C1B057" transform="translate(236.25,58.9375)"/>
<path d="M0 0 C-0.71285156 0.66644531 -1.42570312 1.33289063 -2.16015625 2.01953125 C-16.15064596 15.36886156 -23.54711273 31.57014429 -29.375 49.75 C-29.82857002 51.14090478 -30.2829928 52.53153177 -30.73828125 53.921875 C-31.83532822 57.27811876 -32.92093421 60.63792557 -34 64 C-34.33 64 -34.66 64 -35 64 C-35.0750148 59.91073151 -35.12900317 55.82173793 -35.16479492 51.73193359 C-35.17973947 50.34514373 -35.20010278 48.95839993 -35.22631836 47.57177734 C-35.49424883 33.01947511 -33.00843664 22.21149775 -23.2578125 10.99609375 C-19.22391784 7.12667119 -14.62226715 4.5379164 -9.6875 2 C-9.07640381 1.68450195 -8.46530762 1.36900391 -7.83569336 1.04394531 C-3.37485995 -1.12495332 -3.37485995 -1.12495332 0 0 Z " fill="#C2B258" transform="translate(90,185)"/>
<path d="M0 0 C1.25490234 -0.02416992 1.25490234 -0.02416992 2.53515625 -0.04882812 C8.62870516 -0.05368741 8.62870516 -0.05368741 11.828125 1.83203125 C12.29734375 2.32058594 12.7665625 2.80914062 13.25 3.3125 C12.88108984 5.73154654 12.67217778 6.97003744 10.73461914 8.54174805 C10.09129639 8.88246338 9.44797363 9.22317871 8.78515625 9.57421875 C8.07230469 9.96609375 7.35945313 10.35796875 6.625 10.76171875 C5.4803125 11.37466797 5.4803125 11.37466797 4.3125 12 C-2.88702697 16.04898522 -8.98029629 20.33636682 -14.75 26.3125 C-15.84634766 27.44751953 -15.84634766 27.44751953 -16.96484375 28.60546875 C-21.3040316 33.28020012 -25.23991925 38.20117278 -29.125 43.25 C-44.35129619 62.95146597 -44.35129619 62.95146597 -54.57421875 64.83203125 C-55.51910156 64.92871094 -56.46398437 65.02539062 -57.4375 65.125 C-64.85468915 66.22418494 -71.59468839 69.14591942 -76.9375 74.5078125 C-78.75 76.3125 -78.75 76.3125 -80.75 76.3125 C-77.81824764 69.47665531 -70.79105796 65.89597415 -64.18359375 63.11328125 C-60.58152677 61.92801042 -56.91734386 61.40140627 -53.18359375 60.78515625 C-41.77388466 58.56914534 -33.25432546 43.99048773 -26.53125 35.515625 C-16.63429434 23.17927886 -5.43384222 10.87507228 10.25 6.3125 C10.25 5.3225 10.25 4.3325 10.25 3.3125 C-5.02449697 2.7318433 -16.39231779 4.06716424 -29.828125 11.91796875 C-35.16942732 14.46722668 -40.94582543 15.34654978 -46.75 16.3125 C-46.75 15.3225 -46.75 14.3325 -46.75 13.3125 C-45.36941406 13.00119141 -45.36941406 13.00119141 -43.9609375 12.68359375 C-35.64577131 10.65984149 -28.56276033 8.03000208 -21.06640625 3.8984375 C-14.0823526 0.55859559 -7.61717234 -0.02989471 0 0 Z " fill="#3F1007" transform="translate(236.75,225.6875)"/>
<path d="M0 0 C0.99 0 1.98 0 3 0 C7.02953668 5.87640767 7.18539721 12.10251333 6 19 C2.30552514 29.8769757 -3.89685472 39.99953605 -9.95703125 49.703125 C-12.05799364 53.09358821 -14.03892222 56.52734991 -16 60 C-18.64 60 -21.28 60 -24 60 C-22.68946144 56.42447455 -21.11785899 53.46794273 -18.953125 50.33984375 C-18.35790039 49.46908203 -17.76267578 48.59832031 -17.14941406 47.70117188 C-16.52260742 46.78916016 -15.89580078 45.87714844 -15.25 44.9375 C-10.22314439 37.51848406 -5.5335119 30.26298168 -2 22 C-1.43925781 20.88044922 -1.43925781 20.88044922 -0.8671875 19.73828125 C0.36009243 15.86295138 0.21296116 12.22356412 0.125 8.1875 C0.11597656 7.39923828 0.10695312 6.61097656 0.09765625 5.79882812 C0.07422504 3.86575334 0.03835838 1.9328362 0 0 Z " fill="#F58863" transform="translate(217,152)"/>
<path d="M0 0 C3.44837671 0.66884891 6.06225956 2.02733192 9.09375 3.78125 C10.11154541 4.3680957 11.12934082 4.95494141 12.17797852 5.55957031 C13.82237915 6.52008301 13.82237915 6.52008301 15.5 7.5 C16.63171631 8.15838867 17.76343262 8.81677734 18.92944336 9.49511719 C22.62676908 11.65133969 26.31417591 13.82419106 30 16 C30.64785461 16.3818042 31.29570923 16.7636084 31.9631958 17.15698242 C35.87849899 19.46593011 39.78601615 21.78730671 43.68408203 24.12524414 C44.93452232 24.87398061 46.18663961 25.61992362 47.44042969 26.36303711 C49.19596127 27.4051794 50.94387767 28.46011774 52.69140625 29.515625 C54.19489624 30.41716309 54.19489624 30.41716309 55.72875977 31.33691406 C58 33 58 33 59 36 C58.10784564 38.50970702 57.14452178 40.85843738 56.046875 43.27734375 C55.71935242 44.02011566 55.39182983 44.76288757 55.05438232 45.52816772 C53.96156601 48.0018741 52.85563723 50.46950073 51.75 52.9375 C50.59227328 55.55025722 49.43800069 58.16452478 48.28369141 60.77879333 C47.47071425 62.61911522 46.65656041 64.45891768 45.84130859 66.29823303 C40.98178224 77.26879485 36.24369784 88.29149691 31.5 99.3125 C29.8863205 103.05898395 28.27149944 106.80497396 26.65625 110.55078125 C26.29972351 111.37919525 25.94319702 112.20760925 25.5758667 113.06112671 C23.11256396 118.77487209 23.11256396 118.77487209 22 121 C21.34 121 20.68 121 20 121 C20.60972451 117.41995521 21.57567038 114.34921 23.03442383 111.02734375 C23.45646088 110.05932327 23.87849792 109.0913028 24.31332397 108.09394836 C25.00320908 106.53150642 25.00320908 106.53150642 25.70703125 104.9375 C26.42301987 103.29886238 26.42301987 103.29886238 27.1534729 101.62712097 C28.17458294 99.29084279 29.19778153 96.95547653 30.22286987 94.62094116 C32.86512678 88.60227264 35.49162385 82.57674695 38.1171875 76.55078125 C38.63105515 75.37195877 39.14492279 74.19313629 39.67436218 72.97859192 C45.2963328 60.05915554 50.71689792 47.06153742 56 34 C55.27377441 33.72559082 54.54754883 33.45118164 53.79931641 33.16845703 C51.1160672 32.04844737 48.71594977 30.77590105 46.2109375 29.3046875 C45.28152344 28.76102539 44.35210937 28.21736328 43.39453125 27.65722656 C42.39808594 27.0690918 41.40164062 26.48095703 40.375 25.875 C39.33988281 25.26624023 38.30476563 24.65748047 37.23828125 24.03027344 C35.00927543 22.7185075 32.78111618 21.40530222 30.55371094 20.09082031 C27.48359495 18.28138926 24.40481066 16.48721139 21.32363892 14.69668579 C18.82140331 13.24120389 16.32286872 11.77944904 13.82501221 10.31646729 C12.60830646 9.60547101 11.39016176 8.89693147 10.17059326 8.19085693 C8.46386066 7.20187692 6.76302429 6.20274232 5.0625 5.203125 C4.08410156 4.63239258 3.10570313 4.06166016 2.09765625 3.47363281 C1.40542969 2.98733398 0.71320313 2.50103516 0 2 C0 1.34 0 0.68 0 0 Z " fill="#421409" transform="translate(99,289)"/>
<path d="M0 0 C5.53846154 3.07692308 5.53846154 3.07692308 7 6 C7.57791538 13.0505676 7.57791538 13.0505676 5.25 16.875 C1.81484084 20.11931699 0.37347797 21.02497233 -4.4375 20.9375 C-8.64827101 19.82940237 -10.25210722 18.31363542 -13 15 C-14.45147903 12.09704195 -14.37239025 10.22738221 -14 7 C-10.27802697 0.98651373 -6.99025551 -0.58252129 0 0 Z " fill="#F9BC5E" transform="translate(344,408)"/>
<path d="M0 0 C3.51738539 1.02095083 5.4213045 2.96473571 7.96484375 5.5703125 C9.72063436 9.08189373 8.91629435 12.85701224 7.96484375 16.5703125 C5.32412931 19.67703537 3.42847705 20.43543736 -0.47265625 21.5703125 C-4.94109874 21.5703125 -6.68138835 20.45611279 -10.03515625 17.5703125 C-11.73662613 15.2501263 -12.030012 13.5992489 -12.53515625 10.7578125 C-11.4737451 3.99131645 -7.03061897 -0.62074563 0 0 Z " fill="#F7BA5D" transform="translate(259.03515625,454.4296875)"/>
<path d="M0 0 C3.51738539 1.02095083 5.4213045 2.96473571 7.96484375 5.5703125 C9.72063436 9.08189373 8.91629435 12.85701224 7.96484375 16.5703125 C5.32412931 19.67703537 3.42847705 20.43543736 -0.47265625 21.5703125 C-4.94109874 21.5703125 -6.68138835 20.45611279 -10.03515625 17.5703125 C-11.73662613 15.2501263 -12.030012 13.5992489 -12.53515625 10.7578125 C-11.4737451 3.99131645 -7.03061897 -0.62074563 0 0 Z " fill="#F8BA5D" transform="translate(259.03515625,407.4296875)"/>
<path d="M0 0 C2.30539292 1.50794882 4.53285519 3.09618203 6.75244141 4.72802734 C10.36412557 7.29787953 13.5068913 9.19289706 17.87744141 10.22802734 C17.87744141 10.55802734 17.87744141 10.88802734 17.87744141 11.22802734 C16.58773437 11.26669922 16.58773437 11.26669922 15.27197266 11.30615234 C3.75920465 11.85856433 -6.29198668 14.11122704 -16.12255859 20.22802734 C-16.78255859 20.22802734 -17.44255859 20.22802734 -18.12255859 20.22802734 C-19.93802667 16.37015769 -20.21636336 13.46096738 -20.12255859 9.22802734 C-17.22071335 7.49351935 -14.29921433 5.79528074 -11.37255859 4.10302734 C-10.54755859 3.60931641 -9.72255859 3.11560547 -8.87255859 2.60693359 C-8.07333984 2.14931641 -7.27412109 1.69169922 -6.45068359 1.22021484 C-5.7175293 0.7907959 -4.984375 0.36137695 -4.22900391 -0.08105469 C-2.12255859 -0.77197266 -2.12255859 -0.77197266 0 0 Z " fill="#967F19" transform="translate(223.12255859375,214.77197265625)"/>
<path d="M0 0 C1.32 0 2.64 0 4 0 C6.87146394 5.74292788 5.646594 13.47009511 4.10546875 19.5 C-1.2694159 33.24075194 -11.51763288 50.51763288 -22 61 C-23.66617115 61.04063832 -25.33388095 61.042721 -27 61 C-20.80120634 49.28334077 -14.11100924 38.13241544 -5.98046875 27.65625 C-5.32691406 26.7796875 -4.67335937 25.903125 -4 25 C-3.4328125 24.27425781 -2.865625 23.54851562 -2.28125 22.80078125 C-0.32965138 18.53463426 -0.42729013 14.32830086 -0.3125 9.6875 C-0.27833984 8.75615234 -0.24417969 7.82480469 -0.20898438 6.86523438 C-0.12684059 4.57694328 -0.05758338 2.28901896 0 0 Z " fill="#F38662" transform="translate(211,152)"/>
<path d="M0 0 C1.48828125 1.05078125 1.48828125 1.05078125 3 3 C3.29296875 6.35546875 3.29296875 6.35546875 3.1875 10.1875 C3.16042969 11.45980469 3.13335937 12.73210937 3.10546875 14.04296875 C3.07066406 15.01878906 3.03585937 15.99460937 3 17 C3.58494736 17.28011932 4.16989471 17.56023865 4.77256775 17.84884644 C11.55633284 21.35474672 17.98434772 26.44980278 22 33 C24.33489634 40.70816851 23.4236366 48.94638728 22.9375 56.875 C22.86210971 59.02710895 22.79369476 61.17947411 22.73242188 63.33203125 C22.56858848 68.56035963 22.31897951 73.77895877 22 79 C21.34 79 20.68 79 20 79 C20.04825928 77.71013184 20.09651855 76.42026367 20.14624023 75.09130859 C20.30715553 70.2417056 20.36621498 65.39499792 20.39672852 60.54296875 C20.4235937 58.45552809 20.47699811 56.36823531 20.55883789 54.28222656 C21.29225737 41.03434618 21.29225737 41.03434618 15.70361328 29.52050781 C11.40683492 25.21924863 6.61872072 21.71481533 1.5456543 18.39282227 C0 17 0 17 -0.45410156 15.09887695 C-0.4331543 14.40238037 -0.41220703 13.70588379 -0.390625 12.98828125 C-0.37773437 12.23095703 -0.36484375 11.47363281 -0.3515625 10.69335938 C-0.31804687 9.90767578 -0.28453125 9.12199219 -0.25 8.3125 C-0.23195313 7.51521484 -0.21390625 6.71792969 -0.1953125 5.89648438 C-0.14822247 3.93047551 -0.07647899 1.96508506 0 0 Z " fill="#522312" transform="translate(370,356)"/>
<path d="M0 0 C3.73956251 0 4.92960202 0.93127816 7.625 3.5625 C10.85682655 7.78324508 13 12.63217725 13 18 C9.22443495 18.35957762 7.23004592 18.11727831 3.8125 16.375 C-0.23041589 12.96098214 -1.80621382 10.01537624 -2.3125 4.75 C-2 2 -2 2 0 0 Z " fill="#F1E6DD" transform="translate(143,138)"/>
<path d="M0 0 C3.67124578 0.16316648 5.48186948 0.51147694 8.1875 3.0625 C10.88838488 7.43979619 13 11.80039399 13 17 C9.43395586 17.2097673 6.6274313 17.22815684 3.25 16 C0.07008309 13.17340719 -1.11560672 10.12448867 -2 6 C-1.62790698 1.62790698 -1.62790698 1.62790698 0 0 Z " fill="#F2E7DE" transform="translate(303,96)"/>
<path d="M0 0 C2.9375 1.3125 2.9375 1.3125 5 3 C5 3.99 5 4.98 5 6 C2.58660204 7.00858422 0.16981325 8.00702673 -2.25 9 C-2.93191406 9.28617187 -3.61382812 9.57234375 -4.31640625 9.8671875 C-7.81415735 11.29345494 -10.16900189 12 -14 12 C-13.82303398 7.48736659 -13.42983984 5.48101125 -10.375 2.0625 C-6.43382354 -0.34599673 -4.53818805 -0.66010008 0 0 Z " fill="#F8BC61" transform="translate(344,455)"/>
<path d="M0 0 C5.53846154 3.07692308 5.53846154 3.07692308 7 6 C7.57791538 13.0505676 7.57791538 13.0505676 5.25 16.875 C1.81484084 20.11931699 0.37347797 21.02497233 -4.4375 20.9375 C-8.64827101 19.82940237 -10.25210722 18.31363542 -13 15 C-14.45147903 12.09704195 -14.37239025 10.22738221 -14 7 C-10.27802697 0.98651373 -6.99025551 -0.58252129 0 0 Z M-9.4375 3.5 C-11.64099302 7.02558884 -11.79669284 9.95014472 -11 14 C-9.66666667 16.66666667 -9.66666667 16.66666667 -7 18 C-4.19082139 18.60443392 -1.80242927 18.66040854 1 18 C3.99097304 15.45767292 4.84202557 13.8425303 5.5625 10 C4.78698584 5.86392446 3.38677089 4.45000447 0 2 C-3.95779649 1.37508477 -6.00863886 1.38993161 -9.4375 3.5 Z " fill="#562613" transform="translate(344,408)"/>
<path d="M0 0 C0.66 0.33 1.32 0.66 2 1 C1.21496094 1.67804688 0.42992187 2.35609375 -0.37890625 3.0546875 C-16.84836651 17.52713386 -24.6917802 35.3631095 -31 56 C-31.41856813 57.34266718 -31.83780762 58.68512531 -32.2578125 60.02734375 C-33.18538473 63.01438578 -34.1002839 66.00447464 -35 69 C-35.99 69 -36.98 69 -38 69 C-36.43258496 64.26723338 -34.85109932 59.53946719 -33.25756836 54.81542969 C-32.71969442 53.21477832 -32.18538833 51.61292266 -31.6550293 50.00976562 C-25.24570439 30.65445334 -17.34938699 14.98004334 -2 1 C-1.34 0.67 -0.68 0.34 0 0 Z " fill="#431B0D" transform="translate(92,183)"/>
<path d="M0 0 C3.51738539 1.02095083 5.4213045 2.96473571 7.96484375 5.5703125 C9.72063436 9.08189373 8.91629435 12.85701224 7.96484375 16.5703125 C5.32412931 19.67703537 3.42847705 20.43543736 -0.47265625 21.5703125 C-4.94109874 21.5703125 -6.68138835 20.45611279 -10.03515625 17.5703125 C-11.73662613 15.2501263 -12.030012 13.5992489 -12.53515625 10.7578125 C-11.4737451 3.99131645 -7.03061897 -0.62074563 0 0 Z M-9.1875 6.78125 C-10.68665252 9.94535992 -10.01350575 12.32952979 -9.03515625 15.5703125 C-7.42049561 17.67575145 -6.5246419 18.46213888 -3.9140625 19.0390625 C1.23659038 19.12891797 1.23659038 19.12891797 5.52734375 16.4453125 C7.24198772 13.01602455 7.75062244 11.34205023 6.96484375 7.5703125 C4.085437 4.41667653 2.08830076 2.82251714 -2.09765625 1.8828125 C-5.48380944 2.67531644 -7.1222031 3.97882141 -9.1875 6.78125 Z " fill="#42140A" transform="translate(259.03515625,454.4296875)"/>
<path d="M0 0 C3.51738539 1.02095083 5.4213045 2.96473571 7.96484375 5.5703125 C9.72063436 9.08189373 8.91629435 12.85701224 7.96484375 16.5703125 C5.32412931 19.67703537 3.42847705 20.43543736 -0.47265625 21.5703125 C-4.94109874 21.5703125 -6.68138835 20.45611279 -10.03515625 17.5703125 C-11.73662613 15.2501263 -12.030012 13.5992489 -12.53515625 10.7578125 C-11.4737451 3.99131645 -7.03061897 -0.62074563 0 0 Z M-9.1875 6.78125 C-10.68665252 9.94535992 -10.01350575 12.32952979 -9.03515625 15.5703125 C-8.11848958 17.65364583 -8.11848958 17.65364583 -6.03515625 18.5703125 C-1.07489908 19.21034568 0.85252664 19.35820379 4.96484375 16.4453125 C7.12739192 13.71817623 7.12739192 13.71817623 7.65234375 10.5703125 C6.65473227 6.21709878 4.68218007 4.91085759 0.96484375 2.5703125 C-3.90306488 1.47751668 -6.21326436 2.74547045 -9.1875 6.78125 Z " fill="#491B0D" transform="translate(259.03515625,407.4296875)"/>
<path d="M0 0 C-1.63195312 0.70962891 -1.63195312 0.70962891 -3.296875 1.43359375 C-20.47334144 9.08544579 -33.39289975 19.52818907 -44.9765625 34.46875 C-47.89390383 38.11824262 -51.04798413 41.53572208 -54.21484375 44.96875 C-56.04445938 46.8768145 -56.04445938 46.8768145 -57 49 C-57.66 49 -58.32 49 -59 49 C-57.49993609 45.55220914 -55.49590738 43.17639467 -52.9375 40.4375 C-49.71084006 36.92825042 -46.64944459 33.35986078 -43.6875 29.625 C-35.11043096 19.11883238 -15.32219091 -4.30229006 0 0 Z " fill="#441D0E" transform="translate(264,280)"/>
<path d="M0 0 C0.80695313 0.49113281 1.61390625 0.98226562 2.4453125 1.48828125 C6.81603526 3.34703917 10.1990735 3.34204333 14.875 3.1875 C15.65875 3.17396484 16.4425 3.16042969 17.25 3.14648438 C19.16696782 3.11141789 21.08357751 3.05762072 23 3 C21.60639338 6.36788267 20.16882132 8.16365125 17 10 C12.6190824 10.79412404 8.0487676 10.94828672 3.94921875 9.05078125 C2.3125 7.8125 2.3125 7.8125 0 5 C-0.375 2.1875 -0.375 2.1875 0 0 Z " fill="#360604" transform="translate(307,230)"/>
<path d="M0 0 C-1 3 -1 3 -3.65234375 4.53515625 C-4.73644531 5.03917969 -5.82054687 5.54320312 -6.9375 6.0625 C-11.31214525 8.03982408 -11.31214525 8.03982408 -15 11 C-14.15115234 11.58007812 -14.15115234 11.58007812 -13.28515625 12.171875 C-12.55167969 12.69265625 -11.81820313 13.2134375 -11.0625 13.75 C-9.96615234 14.51570313 -9.96615234 14.51570313 -8.84765625 15.296875 C-6.79194601 17.19177915 -6.37330824 18.27425729 -6 21 C-6.66 21 -7.32 21 -8 21 C-8.556875 20.195625 -9.11375 19.39125 -9.6875 18.5625 C-11.86234336 15.73784688 -11.86234336 15.73784688 -15.4375 14.8125 C-19.17556882 14.62718777 -19.17556882 14.62718777 -21.6875 17.5 C-24.05623754 20.84133176 -26.0555786 24.39921962 -28 28 C-28.66 28 -29.32 28 -30 28 C-27.51809689 17.52085353 -19.72788466 9.75668988 -11 4 C-3.56497175 0 -3.56497175 0 0 0 Z " fill="#4A140E" transform="translate(398,251)"/>
<path d="M0 0 C0.66 0.33 1.32 0.66 2 1 C2 8.26 2 15.52 2 23 C-2.3093986 22.2817669 -5.16324035 21.69268808 -9 20 C-9 19.34 -9 18.68 -9 18 C-6.09399739 16.74335022 -4.20395416 16 -1 16 C-1.01160156 14.92878906 -1.02320313 13.85757812 -1.03515625 12.75390625 C-1.04453299 11.35677257 -1.05363331 9.95963701 -1.0625 8.5625 C-1.07506836 7.50192383 -1.07506836 7.50192383 -1.08789062 6.41992188 C-1.09653588 4.61306441 -1.05220011 2.80612397 -1 1 C-0.67 0.67 -0.34 0.34 0 0 Z " fill="#78521D" transform="translate(177,443)"/>
<path d="M0 0 C0.66 0.66 1.32 1.32 2 2 C6.6470956 5.09806373 10.66160579 4.38973237 16 3.5 C16.66 3.335 17.32 3.17 18 3 C16.56521739 7.54347826 16.56521739 7.54347826 14.375 9.3125 C10.87713453 10.32504 7.57832346 10.57394891 4 10 C1 8.3125 1 8.3125 -1 6 C-1.375 3.3125 -1.375 3.3125 -1 1 C-0.67 0.67 -0.34 0.34 0 0 Z " fill="#380806" transform="translate(266,218)"/>
<path d="M0 0 C2.39550925 0.66083014 3.69084131 1.45929568 4.93359375 3.6328125 C7.73636237 10.47210436 7.90158308 16.14571015 5.25 23 C3.33416379 27.42010784 1.21716446 31.72403998 -1 36 C-1.66 35.67 -2.32 35.34 -3 35 C-2.15536623 32.25494026 -1.3167748 29.60211394 0.0234375 27.0546875 C3.68443423 20.01830371 4.52295028 12.31727212 2.31640625 4.61328125 C1.46968891 2.51963428 1.46968891 2.51963428 0 0 Z " fill="#4C1D0C" transform="translate(219,151)"/>
<path d="M0 0 C1.65 0 3.3 0 5 0 C6.19103774 6.19339623 6.19103774 6.19339623 5.4375 9.375 C3.29504881 11.79690135 1.1205607 11.7286469 -2 12 C-3.01911045 8.10885099 -3.16782969 6.39403493 -1.5625 2.625 C-1.046875 1.75875 -0.53125 0.8925 0 0 Z " fill="#EDE1D9" transform="translate(284,98)"/>
<path d="M0 0 C1.50934217 3.01868434 1.17510672 5.67297229 1 9 C-1 12 -1 12 -3.5625 12.75 C-4.7690625 12.87375 -4.7690625 12.87375 -6 13 C-7 12 -7 12 -7.3125 8.75 C-6.89737376 3.76848517 -5.43588567 0 0 0 Z " fill="#F1E6DD" transform="translate(132,240)"/>
<path d="M0 0 C0.36248013 7.37042925 0.36248013 7.37042925 -1.1875 10.0625 C-3.73728665 11.38135516 -5.31746098 10.7975116 -8 10 C-8.17754126 6.09409237 -8.20731737 3.31097606 -6 0 C-3.50907189 -1.24546405 -2.58919267 -0.7767578 0 0 Z " fill="#F2E8E0" transform="translate(129,141)"/>
<path d="M0 0 C4.20520451 0.58002821 6.34972986 1.84859084 9.625 4.5 C11.23146029 7.71292058 11.24941428 11.0258652 10.625 14.5 C8.125 17.5 8.125 17.5 5.625 19.5 C5.625 16.5 5.625 16.5 7.625 13.5 C8.08167063 9.9227467 8.06277431 8.16541695 6.0625 5.125 C2.75241203 2.91827469 0.53460695 3.15092795 -3.375 3.5 C-5.68536915 3.92854995 -5.68536915 3.92854995 -7.375 4.5 C-5.01181688 1.47512561 -3.86179896 0.57211836 0 0 Z " fill="#3D1008" transform="translate(340.375,407.5)"/>
<path d="M0 0 C2.9375 1.375 2.9375 1.375 5 3 C5 3.66 5 4.32 5 5 C4.154375 4.649375 3.30875 4.29875 2.4375 3.9375 C-1.49699444 2.86445606 -4.04988208 3.08843433 -8 4 C-10.5654594 6.5654594 -10.54046087 8.47686668 -11 12 C-11.99 12 -12.98 12 -14 12 C-13.82303398 7.48736659 -13.42983984 5.48101125 -10.375 2.0625 C-6.43382354 -0.34599673 -4.53818805 -0.66010008 0 0 Z " fill="#41130A" transform="translate(344,455)"/>
<path d="M0 0 C2.22307242 1.03214077 3.94266292 1.94675842 5.75 3.625 C9.05999698 5.64777594 12.28531998 5.82712557 16 5 C18.87640616 2.62499209 18.87640616 2.62499209 21 0 C21.66 0 22.32 0 23 0 C22.69025617 2.89094238 21.95829554 4.04691751 20 6.25 C15.91067932 8.63543706 12.62998268 8.8151378 8 8 C4.03275246 5.98031034 1.52240117 4.26272329 0 0 Z " fill="#3E0C09" transform="translate(282,256)"/>
<path d="M0 0 C1.48828125 1.05078125 1.48828125 1.05078125 3 3 C3.29296875 6.35546875 3.29296875 6.35546875 3.1875 10.1875 C3.16042969 11.45980469 3.13335937 12.73210937 3.10546875 14.04296875 C3.07066406 15.01878906 3.03585937 15.99460937 3 17 C3.61359375 17.27585937 4.2271875 17.55171875 4.859375 17.8359375 C7.6725172 19.36571191 9.11923109 21.44752791 11 24 C6.74227344 24 4.82252129 22.44880753 1.67578125 19.6875 C-1.89699853 13.95772729 -0.52588194 6.49318117 0 0 Z " fill="#6A391C" transform="translate(370,356)"/>
<path d="M0 0 C1.11083984 1.70214844 1.11083984 1.70214844 2 4 C1.40087891 6.29003906 1.40087891 6.29003906 0.2265625 8.765625 C-0.3921875 10.09980469 -0.3921875 10.09980469 -1.0234375 11.4609375 C-1.69246094 12.84152344 -1.69246094 12.84152344 -2.375 14.25 C-3.03242187 15.65378906 -3.03242187 15.65378906 -3.703125 17.0859375 C-4.78820695 19.39763383 -5.88744297 21.70143312 -7 24 C-7.66 24 -8.32 24 -9 24 C-8.40227336 20.56506424 -7.52472216 17.55768504 -6.15234375 14.35546875 C-5.79462891 13.51435547 -5.43691406 12.67324219 -5.06835938 11.80664062 C-4.50858398 10.51016602 -4.50858398 10.51016602 -3.9375 9.1875 C-3.37192383 7.86202148 -3.37192383 7.86202148 -2.79492188 6.50976562 C-1.86751446 4.33798876 -0.93576366 2.16818633 0 0 Z " fill="#4A1B0D" transform="translate(128,386)"/>
<path d="M0 0 C0.66 0.33 1.32 0.66 2 1 C1.154375 2.010625 0.30875 3.02125 -0.5625 4.0625 C-2.70163365 7.05850253 -2.99788772 7.87326306 -3.0625 11.75 C-1.59964819 16.22460554 0.25905561 17.08116824 4.25 19.1875 C4.8275 19.455625 5.405 19.72375 6 20 C3.3125 20.3125 3.3125 20.3125 0 20 C-3.50791183 17.03776334 -5.69442645 14.87709469 -6.4375 10.3125 C-5.8173965 5.61743063 -3.25750703 3.27689695 0 0 Z " fill="#47190C" transform="translate(253,408)"/>
<path d="M0 0 C2.91916538 -0.34751969 5.13195476 -0.53280018 7.69921875 1.04296875 C9.88339965 2.84637235 11.72206192 4.44412384 13 7 C12.91348369 8.54613014 12.75997364 10.08909387 12.5625 11.625 C12.46066406 12.44226563 12.35882813 13.25953125 12.25390625 14.1015625 C12.17011719 14.72804688 12.08632813 15.35453125 12 16 C11.01 16 10.02 16 9 16 C9.13019531 15.39671875 9.26039063 14.7934375 9.39453125 14.171875 C9.81813684 11.71733793 10.09448879 9.4910682 10 7 C7.41172744 3.86269993 5.63334756 3.14339945 1.6875 2.25 C0.800625 2.1675 -0.08625 2.085 -1 2 C-0.67 1.34 -0.34 0.68 0 0 Z " fill="#401209" transform="translate(255,455)"/>
<path d="M0 0 C4.1027142 7.77180821 3.10699302 16.42866999 3 25 C2.34 25 1.68 25 1 25 C0.15672251 16.64251778 -0.12190678 8.39802254 0 0 Z " fill="#420E0A" transform="translate(182,216)"/>
<path d="M0 0 C0.66 0 1.32 0 2 0 C1.67 1.32 1.34 2.64 1 4 C5.455 3.505 5.455 3.505 10 3 C10 3.99 10 4.98 10 6 C1.585 6.495 1.585 6.495 -7 7 C-6 5 -6 5 -4.0625 4.0625 C-1.68028507 3.04654078 -1.68028507 3.04654078 0 0 Z " fill="#380806" transform="translate(192,208)"/>
<path d="M0 0 C0.66 0.33 1.32 0.66 2 1 C0.34886481 8.39258257 -1.62035269 15.20639425 -5 22 C-5.66 21.67 -6.32 21.34 -7 21 C-4.69 14.07 -2.38 7.14 0 0 Z " fill="#4D2712" transform="translate(61,231)"/>
<path d="M0 0 C9.67328365 -0.86027226 9.67328365 -0.86027226 13.625 2.3125 C16 5 16 5 16 8 C15.34 8 14.68 8 14 8 C12.9790625 6.7934375 12.9790625 6.7934375 11.9375 5.5625 C8.07143945 2.1899791 4.98452057 2.11945474 0 2 C0 1.34 0 0.68 0 0 Z " fill="#4F1811" transform="translate(316,209)"/>
<path d="M0 0 C3 1.875 3 1.875 5 4 C5 4.66 5 5.32 5 6 C1.125 4.125 1.125 4.125 0 3 C-1.68608966 2.92794489 -3.37500659 2.91613932 -5.0625 2.9375 C-5.98160156 2.94652344 -6.90070313 2.95554688 -7.84765625 2.96484375 C-8.55792969 2.97644531 -9.26820313 2.98804688 -10 3 C-10 2.34 -10 1.68 -10 1 C-6.79776203 -0.60111899 -3.47461286 -0.49827144 0 0 Z " fill="#43100B" transform="translate(283,196)"/>
<path d="M0 0 C5.32697239 1.45281065 8.36402802 5.08111378 12 9 C11.67 9.66 11.34 10.32 11 11 C9.16086305 9.5489926 7.3288247 8.08898341 5.5 6.625 C4.4790625 5.81289063 3.458125 5.00078125 2.40625 4.1640625 C1.6121875 3.44992187 0.818125 2.73578125 0 2 C0 1.34 0 0.68 0 0 Z " fill="#42140A" transform="translate(380,380)"/>
<path d="M0 0 C0.66 0 1.32 0 2 0 C1 3 1 3 -0.625 4.25 C-4.00513463 5.31741094 -6.58421396 4.77338552 -10 4 C-10.33 3.34 -10.66 2.68 -11 2 C-10.28972656 1.93941406 -9.57945312 1.87882812 -8.84765625 1.81640625 C-7.46900391 1.69072266 -7.46900391 1.69072266 -6.0625 1.5625 C-5.14597656 1.48128906 -4.22945313 1.40007812 -3.28515625 1.31640625 C-1.03840268 1.23955024 -1.03840268 1.23955024 0 0 Z " fill="#4E1F0F" transform="translate(263,471)"/>
<path d="M0 0 C4.35844731 0.21876376 8.08865223 1.31093217 11.5625 3.9375 C13 6 13 6 13 9 C12.34 9 11.68 9 11 9 C10.443125 8.195625 9.88625 7.39125 9.3125 6.5625 C6.32712187 3.25437828 4.33962718 3.32145387 0 3 C-0.66 2.67 -1.32 2.34 -2 2 C-1.34 1.34 -0.68 0.68 0 0 Z " fill="#3B0A07" transform="translate(379,263)"/>
<path d="M0 0 C-3.0469629 1.69433918 -5.82821466 2.49467112 -9.25 3.125 C-10.58804688 3.37636719 -10.58804688 3.37636719 -11.953125 3.6328125 C-12.96632812 3.81457031 -12.96632812 3.81457031 -14 4 C-14 3.01 -14 2.02 -14 1 C-8.83955235 -0.512545 -5.34001821 -1.33500455 0 0 Z " fill="#531A13" transform="translate(204,238)"/>
<path d="M0 0 C4.75 0.75 4.75 0.75 7 3 C6.875 5 6.875 5 6 7 C3.9375 8.25 3.9375 8.25 2 9 C2 8.01 2 7.02 2 6 C2.66 6 3.32 6 4 6 C4 5.01 4 4.02 4 3 C2.68 2.67 1.36 2.34 0 2 C0 1.34 0 0.68 0 0 Z " fill="#491C0A" transform="translate(243,226)"/>
<path d="M0 0 C1.875 0.625 1.875 0.625 4 2 C6.38992166 6.8993394 6.21277961 11.68050971 6 17 C5.67 17 5.34 17 5 17 C4.80664062 16.10796875 4.61328125 15.2159375 4.4140625 14.296875 C4.15367187 13.12640625 3.89328125 11.9559375 3.625 10.75 C3.36976563 9.58984375 3.11453125 8.4296875 2.8515625 7.234375 C2.14203595 4.53947599 1.36903611 2.40474168 0 0 Z " fill="#350703" transform="translate(219,151)"/>
<path d="M0 0 C-1.38782485 0.8466034 -2.78569397 1.67675339 -4.1875 2.5 C-4.96480469 2.9640625 -5.74210938 3.428125 -6.54296875 3.90625 C-9.24103386 5.10729647 -11.0806982 5.20741043 -14 5 C-5.5985874 -1.78575633 -5.5985874 -1.78575633 0 0 Z " fill="#3A0B06" transform="translate(215,233)"/>
<path d="M0 0 C0.99 0.33 1.98 0.66 3 1 C2.67 1.33 2.34 1.66 2 2 C1.63239269 4.32817964 1.29758419 6.6618385 1 9 C0.01 9 -0.98 9 -2 9 C-2.25 3.375 -2.25 3.375 0 0 Z " fill="#5C2C16" transform="translate(332,412)"/>
<path d="M0 0 C1.625 1.5625 1.625 1.5625 3 4 C2.1875 7.75 2.1875 7.75 1 11 C0.01 10.34 -0.98 9.68 -2 9 C-1.125 2.25 -1.125 2.25 0 0 Z " fill="#551C14" transform="translate(183,209)"/>
<path d="M0 0 C-0.34879632 3.25543229 -1.02133261 4.01873107 -3.5625 6.25 C-4.366875 6.8275 -5.17125 7.405 -6 8 C-6.33 7.01 -6.66 6.02 -7 5 C-2.25 0 -2.25 0 0 0 Z " fill="#49140E" transform="translate(305,256)"/>
<path d="M0 0 C0 0.66 0 1.32 0 2 C-5.47619048 7 -5.47619048 7 -8 7 C-6.47663111 3.31852519 -4.31953005 0 0 0 Z " fill="#3E0C08" transform="translate(164,295)"/>
<path d="M0 0 C0.66 0 1.32 0 2 0 C2 2.31 2 4.62 2 7 C1.01 7 0.02 7 -1 7 C-0.67 4.69 -0.34 2.38 0 0 Z " fill="#60301A" transform="translate(331,460)"/>
<path d="M0 0 C0.66 0.33 1.32 0.66 2 1 C-0.475 4.465 -0.475 4.465 -3 8 C-3.66 7.67 -4.32 7.34 -5 7 C-3.70700306 4.11562221 -2.34058637 2.12780579 0 0 Z " fill="#4C1D0E" transform="translate(253,455)"/>
<path d="M0 0 C0.9075 0.61875 1.815 1.2375 2.75 1.875 C5.14948817 3.44389611 7.40961612 4.80443821 10 6 C6.67179946 6.22692276 4.58198664 6.32162419 1.625 4.6875 C0 3 0 3 0 0 Z " fill="#360904" transform="translate(249,422)"/>
<path d="M0 0 C0.33 0.99 0.66 1.98 1 3 C-1.64 3 -4.28 3 -7 3 C-7 2.34 -7 1.68 -7 1 C-4 0 -4 0 0 0 Z " fill="#552211" transform="translate(179,288)"/>
<path d="M0 0 C2.99332739 0.9977758 3.94766315 1.7522025 6 4 C5.67 4.99 5.34 5.98 5 7 C3.29115995 5.37660195 1.62553283 3.70680947 0 2 C0 1.34 0 0.68 0 0 Z " fill="#47190C" transform="translate(331,421)"/>
<path d="M0 0 C2.46800047 1.15173355 4.04783565 2.04783565 6 4 C6 4.99 6 5.98 6 7 C5.34 7 4.68 7 4 7 C0 2.52941176 0 2.52941176 0 0 Z " fill="#410E0A" transform="translate(326,210)"/>
<path d="M0 0 C-0.33 0.99 -0.66 1.98 -1 3 C-4.0625 4.1875 -4.0625 4.1875 -7 5 C-7 4.01 -7 3.02 -7 2 C-2.25 0 -2.25 0 0 0 Z " fill="#4D1610" transform="translate(398,251)"/>
</svg>
