<?xml version="1.0" encoding="UTF-8"?>
<svg version="1.1" xmlns="http://www.w3.org/2000/svg" width="512" height="512">
<path d="M0 0 C0.86496094 0.32871094 1.72992188 0.65742187 2.62109375 0.99609375 C13.94095822 5.97545575 20.51900669 14.72214833 25 26 C29.20129125 37.52235322 30.40886316 49.3004362 31.234375 61.44921875 C31.30140625 62.41472656 31.3684375 63.38023437 31.4375 64.375 C31.47746094 65.18710938 31.51742188 65.99921875 31.55859375 66.8359375 C31.85148617 69.11707809 31.85148617 69.11707809 33.55078125 70.92578125 C35.53225513 73.76179913 35.0699233 75.39858167 34.75 78.8125 C34.44497565 93.52992481 41.18343763 107.91906065 46.25 121.5 C52.6591089 138.81855327 56.34866715 157.82717524 51 176 C50.35417969 177.25876953 50.35417969 177.25876953 49.6953125 178.54296875 C48.5680978 182.52621618 50.31935408 185.60873876 51.875 189.3125 C52.17019531 190.05306641 52.46539062 190.79363281 52.76953125 191.55664062 C53.49778063 193.37726407 54.24687624 195.18952451 55 197 C59.3629924 197 63.24155396 196.27385985 67 194 C68.90393834 190.17381621 69.37879279 186.20054402 70 182 C71.87328423 172.46759165 74.40276289 165.08643299 81.8125 158.5 C85.30654377 156.85574411 88.03160714 156.47550769 91.83984375 156.21484375 C94.19579506 156.06511955 94.19579506 156.06511955 97.0625 154.9375 C100.13202742 153.95786359 102.60225595 154.02519283 105.79296875 154.12890625 C109.24393552 153.92734536 112.32613257 152.74091033 115.59375 151.671875 C118.89813735 150.74922139 121.59187085 150.70994646 125 151 C125.33 151.33 125.66 151.66 126 152 C125.77737544 155.93303396 125.54464988 158.31479531 123.0625 161.4375 C121 163 121 163 119 163 C121.31 167.62 123.62 172.24 126 177 C133.28924323 175.65429356 140.36395785 173.84547651 147.484375 171.8046875 C150.81794167 171.04167113 153.60241894 170.93854042 157 171 C161.92165824 184.15407993 166.57217161 197.38060282 171.0625 210.6875 C175.00236723 222.34689016 178.97113091 233.9915778 183.12109375 245.578125 C183.77924191 247.42357457 184.43736414 249.26903337 185.09545898 251.11450195 C186.3409757 254.60492229 187.6020915 258.08919504 188.87133789 261.57104492 C189.43564882 263.15001705 189.99940122 264.72918894 190.5625 266.30859375 C190.82626938 267.01804138 191.09003876 267.72748901 191.36180115 268.45843506 C192.73287414 272.35077758 193.28349147 275.02703671 192 279 C171.74661849 285.00114838 151.40835198 290.69451737 131.05761719 296.35473633 C127.23576288 297.41814292 123.4152272 298.48611572 119.59570312 299.55786133 C114.92097473 300.86955405 110.24420405 302.17369992 105.56584549 303.4723835 C103.80051545 303.96375467 102.0359105 304.45773902 100.27207565 304.95445061 C97.82314977 305.64348783 95.37171208 306.32276325 92.91943359 306.99975586 C92.20259903 307.20382553 91.48576447 307.4078952 90.74720764 307.6181488 C86.73233182 308.71403122 83.15896327 309.2075555 79 309 C78.49411853 307.08487728 77.99551609 305.16783078 77.5 303.25 C77.2215625 302.18265625 76.943125 301.1153125 76.65625 300.015625 C76 297 76 297 76 293 C75.01 293.33 74.02 293.66 73 294 C71.27604932 294.16988852 69.54417968 294.26609392 67.8125 294.3125 C66.91144531 294.34988281 66.01039063 294.38726562 65.08203125 294.42578125 C57.23870505 293.34222922 51.63735513 288.41743754 46.0625 283.125 C45.02416016 282.1493811 45.02416016 282.1493811 43.96484375 281.15405273 C37.70242516 275.07414142 33.31679029 268.54992556 29 261 C28.77302118 274.52235334 29.36797056 287.73886097 30.75 301.1875 C30.92913628 303.00670473 31.10775741 304.82596026 31.28588867 306.64526367 C32.15545712 315.40342258 33.11027441 324.14820503 34.19140625 332.8828125 C34.2862027 333.64924576 34.38099915 334.41567902 34.47866821 335.20533752 C34.92584688 338.79241875 35.38650227 342.3771027 35.86816406 345.9597168 C36.03155273 347.21695557 36.19494141 348.47419434 36.36328125 349.76953125 C36.51063721 350.85854736 36.65799316 351.94756348 36.80981445 353.06958008 C36.99894226 355.98370205 36.81696603 358.2037104 36 361 C21.85761577 375.550942 -4.06238698 378.72877054 -23.28686523 379.2878418 C-50.21012584 379.5965317 -76.60682032 373.60369175 -102.0625 365.3125 C-103.83065063 364.74184814 -103.83065063 364.74184814 -105.63452148 364.15966797 C-106.71548096 363.79373535 -107.79644043 363.42780273 -108.91015625 363.05078125 C-109.87058838 362.72762939 -110.83102051 362.40447754 -111.82055664 362.0715332 C-112.53977295 361.71792725 -113.25898926 361.36432129 -114 361 C-115.35512044 356.93463869 -113.87179442 354.40092071 -112.4375 350.5625 C-103.78438841 325.95282655 -98.9483069 298.07843963 -98 272 C-98.7734375 272.79664063 -99.546875 273.59328125 -100.34375 274.4140625 C-116.77820566 291.19492423 -116.77820566 291.19492423 -130 293 C-130.21934204 294.07483643 -130.21934204 294.07483643 -130.44311523 295.17138672 C-131.10500364 298.40652711 -131.77119644 301.64076619 -132.4375 304.875 C-132.66759766 306.00292969 -132.89769531 307.13085938 -133.13476562 308.29296875 C-133.35712891 309.36933594 -133.57949219 310.44570313 -133.80859375 311.5546875 C-134.01282959 312.54968262 -134.21706543 313.54467773 -134.42749023 314.56982422 C-135 317 -135 317 -136 319 C-140.93678208 319.16660039 -145.02140203 318.67681001 -149.76928711 317.33862305 C-150.4090256 317.16102259 -151.0487641 316.98342213 -151.7078886 316.80043983 C-153.81685895 316.21269935 -155.92198404 315.61225226 -158.02734375 315.01171875 C-159.52405284 314.59205258 -161.02099629 314.17322144 -162.51815796 313.75517273 C-166.50597055 312.63938427 -170.49066969 311.51284753 -174.47482681 310.38408661 C-178.57612859 309.22400093 -182.6800759 308.07336137 -186.78393555 306.92236328 C-191.6655039 305.55283829 -196.54691943 304.18279551 -201.42713928 302.80847168 C-210.45961766 300.26575087 -219.49873594 297.75112088 -228.5546875 295.29296875 C-229.9905999 294.90261696 -229.9905999 294.90261696 -231.45552063 294.50437927 C-234.89864984 293.56932222 -238.342012 292.63529546 -241.78805542 291.71102905 C-244.02272538 291.11138272 -246.255626 290.50553325 -248.48828125 289.8984375 C-250.29099487 289.41383057 -250.29099487 289.41383057 -252.13012695 288.91943359 C-255 288 -255 288 -258 286 C-257.41531841 280.78020321 -256.17916555 276.10485043 -254.39453125 271.16015625 C-254.12252396 270.3887178 -253.85051666 269.61727936 -253.57026672 268.82246399 C-252.97256059 267.12901703 -252.37196873 265.4365865 -251.76885986 263.74505615 C-250.08651536 259.02613834 -248.42518695 254.29981669 -246.76171875 249.57421875 C-246.21257812 248.01661835 -246.21257812 248.01661835 -245.65234375 246.42755127 C-242.43624151 237.28663109 -239.28398159 228.1244753 -236.14453125 218.95703125 C-235.89549105 218.23016932 -235.64645084 217.50330738 -235.38986397 216.75441933 C-233.13162164 210.1633543 -230.87472 203.57183337 -228.62368774 196.978302 C-227.43571499 193.49874507 -226.24506987 190.02011337 -225.05257225 186.54210472 C-224.60837571 185.24473995 -224.16526018 183.94700453 -223.72326088 182.64888954 C-223.11649702 180.86707256 -222.50586603 179.08657384 -221.89501953 177.30615234 C-221.55165558 176.30111664 -221.20829163 175.29608093 -220.85452271 174.2605896 C-220 172 -220 172 -219 171 C-211.46478977 171.42857969 -204.63240885 173.37236801 -197.4375 175.5625 C-196.33341797 175.89185547 -195.22933594 176.22121094 -194.09179688 176.56054688 C-191.39239648 177.36686128 -188.69530881 178.18013299 -186 179 C-185.80881592 178.39744385 -185.61763184 177.7948877 -185.4206543 177.17407227 C-185.16195557 176.37541748 -184.90325684 175.5767627 -184.63671875 174.75390625 C-184.38365967 173.9657251 -184.13060059 173.17754395 -183.86987305 172.36547852 C-182.62159663 168.97099346 -180.89659119 166.07378573 -179 163 C-179.86625 162.6596875 -179.86625 162.6596875 -180.75 162.3125 C-183.67824265 160.60435845 -185.19951842 158.86743363 -187 156 C-186.75 153.1875 -186.75 153.1875 -186 151 C-180.21088235 150.67838235 -175.9382097 151.53111183 -170.453125 153.33984375 C-168.07300551 153.98035361 -166.19973154 154.14197602 -163.75 154.0625 C-159.89075938 153.99817932 -157.6046043 154.749423 -154 156 C-152.50219046 156.1489684 -151.0016857 156.2722135 -149.5 156.375 C-144.15679516 156.93885579 -141.09399276 158.64291584 -137.4765625 162.71484375 C-131.6373756 170.91045379 -130.37354866 181.23302675 -128.47729492 190.91210938 C-128.07658442 193.04403254 -128.07658442 193.04403254 -127 195 C-124.65613191 195.91031272 -124.65613191 195.91031272 -121.9375 196.625 C-121.01839844 196.88539063 -120.09929687 197.14578125 -119.15234375 197.4140625 C-118.44207031 197.60742188 -117.73179687 197.80078125 -117 198 C-114.444646 192.57713317 -114.444646 192.57713317 -114.46875 186.73828125 C-114.7471875 185.97902344 -115.025625 185.21976563 -115.3125 184.4375 C-121.33501581 167.56924144 -114.44700385 148.05324784 -109.56176758 131.74243164 C-102.46165127 110.9176506 -102.46165127 110.9176506 -103.89453125 89.93359375 C-104.25933594 89.29550781 -104.62414062 88.65742188 -105 88 C-107.93398085 82.84739052 -107.48511556 77.78569288 -106.7487793 72.03955078 C-106.12531774 67.10730129 -105.97487789 62.36935888 -106.11669922 57.40185547 C-106.54481311 41.36677576 -102.76226254 26.67806183 -91.625 14.5546875 C-80.40674905 3.82184164 -67.53735549 -0.02870642 -52.31933594 -0.65478516 C-48.21111013 -0.83178561 -44.35024475 -1.22227566 -40.3125 -2.0625 C-27.50963442 -4.39995264 -12.25367532 -4.67798733 0 0 Z M-176 166 C-177.175625 167.5159375 -177.175625 167.5159375 -178.375 169.0625 C-178.81585938 169.63097656 -179.25671875 170.19945312 -179.7109375 170.78515625 C-181.418073 173.71832543 -182.15912859 176.72688838 -183 180 C-170.63320239 183.99116402 -170.63320239 183.99116402 -158 187 C-157.9175 185.80375 -157.835 184.6075 -157.75 183.375 C-157.68039063 182.36566406 -157.68039063 182.36566406 -157.609375 181.3359375 C-158.20668778 177.76400705 -159.71146644 175.78731651 -162 173 C-164.29619669 171.41342507 -166.70666216 170.26226489 -169.25 169.125 C-169.8996875 168.81820312 -170.549375 168.51140625 -171.21875 168.1953125 C-172.80554705 167.44858448 -174.40186792 166.72215059 -176 166 Z M108.125 169.75 C107.48691406 170.09804687 106.84882813 170.44609375 106.19140625 170.8046875 C102.69400696 172.77608167 99.95524717 174.43741441 98 178 C97.43672257 180.11818257 97.43672257 180.11818257 97.3125 182.25 C97.209375 183.4875 97.10625 184.725 97 186 C105.46835441 184.48565898 113.71254868 182.27628663 122 180 C121.48883683 175.94554665 120.75152802 173.04156286 118.5 169.625 C118.0565625 168.93664062 117.613125 168.24828125 117.15625 167.5390625 C116.7746875 167.03117188 116.393125 166.52328125 116 166 C113.39964236 166 110.40615534 168.46599639 108.125 169.75 Z " fill="#FE535C" transform="translate(290,72)"/>
<path d="M0 0 C1.31363677 3.9409103 0.27243178 5.97398285 -1.296875 9.76171875 C-2.4644409 13.47847018 -2.24077539 17.14759383 -2 21 C0.475 19.02 0.475 19.02 3 17 C7.75196334 34.09322734 12.2720614 50.86163378 6.48046875 68.2265625 C3.32185079 78.61382195 3.52832812 88.55501973 3.875 99.3125 C3.95083671 102.0645996 4.01864503 104.81619413 4.06838989 107.56889343 C4.1000642 109.26101269 4.14692583 110.95294127 4.2116394 112.64411926 C4.34641013 118.92248617 2.82636189 121.97300384 -1.41796875 126.68359375 C-10.33620905 135.55151957 -17.21967761 142.25519519 -30 144 C-30.21934204 145.07483643 -30.21934204 145.07483643 -30.44311523 146.17138672 C-31.10500364 149.40652711 -31.77119644 152.64076619 -32.4375 155.875 C-32.66759766 157.00292969 -32.89769531 158.13085938 -33.13476562 159.29296875 C-33.35712891 160.36933594 -33.57949219 161.44570313 -33.80859375 162.5546875 C-34.01282959 163.54968262 -34.21706543 164.54467773 -34.42749023 165.56982422 C-35 168 -35 168 -36 170 C-40.93678208 170.16660039 -45.02140203 169.67681001 -49.76928711 168.33862305 C-50.4090256 168.16102259 -51.0487641 167.98342213 -51.7078886 167.80043983 C-53.81685895 167.21269935 -55.92198404 166.61225226 -58.02734375 166.01171875 C-59.52405284 165.59205258 -61.02099629 165.17322144 -62.51815796 164.75517273 C-66.50597055 163.63938427 -70.49066969 162.51284753 -74.47482681 161.38408661 C-78.57612859 160.22400093 -82.6800759 159.07336137 -86.78393555 157.92236328 C-91.6655039 156.55283829 -96.54691943 155.18279551 -101.42713928 153.80847168 C-110.45961766 151.26575087 -119.49873594 148.75112088 -128.5546875 146.29296875 C-129.9905999 145.90261696 -129.9905999 145.90261696 -131.45552063 145.50437927 C-134.89864984 144.56932222 -138.342012 143.63529546 -141.78805542 142.71102905 C-144.02272538 142.11138272 -146.255626 141.50553325 -148.48828125 140.8984375 C-149.69009033 140.57536621 -150.89189941 140.25229492 -152.13012695 139.91943359 C-155 139 -155 139 -158 137 C-157.41531841 131.78020321 -156.17916555 127.10485043 -154.39453125 122.16015625 C-154.12252396 121.3887178 -153.85051666 120.61727936 -153.57026672 119.82246399 C-152.97256059 118.12901703 -152.37196873 116.4365865 -151.76885986 114.74505615 C-150.08651536 110.02613834 -148.42518695 105.29981669 -146.76171875 100.57421875 C-146.395625 99.53581848 -146.02953125 98.49741821 -145.65234375 97.42755127 C-142.43624151 88.28663109 -139.28398159 79.1244753 -136.14453125 69.95703125 C-135.89549105 69.23016932 -135.64645084 68.50330738 -135.38986397 67.75441933 C-133.13162164 61.1633543 -130.87472 54.57183337 -128.62368774 47.978302 C-127.43571499 44.49874507 -126.24506987 41.02011337 -125.05257225 37.54210472 C-124.60837571 36.24473995 -124.16526018 34.94700453 -123.72326088 33.64888954 C-123.11649702 31.86707256 -122.50586603 30.08657384 -121.89501953 28.30615234 C-121.55165558 27.30111664 -121.20829163 26.29608093 -120.85452271 25.2605896 C-120 23 -120 23 -119 22 C-111.46478977 22.42857969 -104.63240885 24.37236801 -97.4375 26.5625 C-96.33341797 26.89185547 -95.22933594 27.22121094 -94.09179688 27.56054688 C-91.39239648 28.36686128 -88.69530881 29.18013299 -86 30 C-85.80881592 29.39744385 -85.61763184 28.7948877 -85.4206543 28.17407227 C-85.16195557 27.37541748 -84.90325684 26.5767627 -84.63671875 25.75390625 C-84.38365967 24.9657251 -84.13060059 24.17754395 -83.86987305 23.36547852 C-82.62159663 19.97099346 -80.89659119 17.07378573 -79 14 C-79.5775 13.773125 -80.155 13.54625 -80.75 13.3125 C-83.67824265 11.60435845 -85.19951842 9.86743363 -87 7 C-86.75 4.1875 -86.75 4.1875 -86 2 C-80.21088235 1.67838235 -75.9382097 2.53111183 -70.453125 4.33984375 C-68.07300551 4.98035361 -66.19973154 5.14197602 -63.75 5.0625 C-59.89075938 4.99817932 -57.6046043 5.749423 -54 7 C-52.50219046 7.1489684 -51.0016857 7.2722135 -49.5 7.375 C-44.15679516 7.93885579 -41.09399276 9.64291584 -37.4765625 13.71484375 C-31.6373756 21.91045379 -30.37354866 32.23302675 -28.47729492 41.91210938 C-28.07658442 44.04403254 -28.07658442 44.04403254 -27 46 C-24.65613191 46.91031272 -24.65613191 46.91031272 -21.9375 47.625 C-21.01839844 47.88539063 -20.09929687 48.14578125 -19.15234375 48.4140625 C-18.44207031 48.60742188 -17.73179687 48.80078125 -17 49 C-16.74307373 48.38479492 -16.48614746 47.76958984 -16.22143555 47.13574219 C-15.0492185 44.33804027 -13.86845955 41.54402213 -12.6875 38.75 C-12.08131836 37.29787109 -12.08131836 37.29787109 -11.46289062 35.81640625 C-11.06650391 34.88183594 -10.67011719 33.94726562 -10.26171875 32.984375 C-9.90037842 32.12553711 -9.53903809 31.26669922 -9.16674805 30.38183594 C-8 28 -8 28 -6.38183594 25.88232422 C-4.35386658 23.11984299 -4.6262718 20.75865693 -4.5625 17.375 C-4.24940792 10.86812977 -2.8799097 5.81339912 0 0 Z M-76 17 C-77.175625 18.5159375 -77.175625 18.5159375 -78.375 20.0625 C-78.81585938 20.63097656 -79.25671875 21.19945312 -79.7109375 21.78515625 C-81.418073 24.71832543 -82.15912859 27.72688838 -83 31 C-70.63320239 34.99116402 -70.63320239 34.99116402 -58 38 C-57.9175 36.80375 -57.835 35.6075 -57.75 34.375 C-57.68039063 33.36566406 -57.68039063 33.36566406 -57.609375 32.3359375 C-58.20668778 28.76400705 -59.71146644 26.78731651 -62 24 C-64.29619669 22.41342507 -66.70666216 21.26226489 -69.25 20.125 C-69.8996875 19.81820312 -70.549375 19.51140625 -71.21875 19.1953125 C-72.80554705 18.44858448 -74.40186792 17.72215059 -76 17 Z " fill="#A9EDE9" transform="translate(190,221)"/>
<path d="M0 0 C4.67033543 4.18858163 6.67622479 9.92608595 7.32421875 16.078125 C7.41678821 21.74622451 6.93794364 26.67065498 5 32 C5.56976563 32.23460937 6.13953125 32.46921875 6.7265625 32.7109375 C16.92173199 38.49170371 20.65727464 50.55234466 24 61 C28.3629924 61 32.24155396 60.27385985 36 58 C37.90393834 54.17381621 38.37879279 50.20054402 39 46 C40.87328423 36.46759165 43.40276289 29.08643299 50.8125 22.5 C54.30654377 20.85574411 57.03160714 20.47550769 60.83984375 20.21484375 C63.19579506 20.06511955 63.19579506 20.06511955 66.0625 18.9375 C69.13202742 17.95786359 71.60225595 18.02519283 74.79296875 18.12890625 C78.24393552 17.92734536 81.32613257 16.74091033 84.59375 15.671875 C87.89813735 14.74922139 90.59187085 14.70994646 94 15 C94.495 15.495 94.495 15.495 95 16 C94.77737544 19.93303396 94.54464988 22.31479531 92.0625 25.4375 C90 27 90 27 88 27 C90.31 31.62 92.62 36.24 95 41 C102.28924323 39.65429356 109.36395785 37.84547651 116.484375 35.8046875 C119.81794167 35.04167113 122.60241894 34.93854042 126 35 C130.92165824 48.15407993 135.57217161 61.38060282 140.0625 74.6875 C144.00236723 86.34689016 147.97113091 97.9915778 152.12109375 109.578125 C152.77924191 111.42357457 153.43736414 113.26903337 154.09545898 115.11450195 C155.3409757 118.60492229 156.6020915 122.08919504 157.87133789 125.57104492 C158.43564882 127.15001705 158.99940122 128.72918894 159.5625 130.30859375 C159.82626938 131.01804138 160.09003876 131.72748901 160.36180115 132.45843506 C161.73287414 136.35077758 162.28349147 139.02703671 161 143 C140.74661849 149.00114838 120.40835198 154.69451737 100.05761719 160.35473633 C96.23576288 161.41814292 92.4152272 162.48611572 88.59570312 163.55786133 C83.92097473 164.86955405 79.24420405 166.17369992 74.56584549 167.4723835 C72.80051545 167.96375467 71.0359105 168.45773902 69.27207565 168.95445061 C66.82314977 169.64348783 64.37171208 170.32276325 61.91943359 170.99975586 C61.20259903 171.20382553 60.48576447 171.4078952 59.74720764 171.6181488 C55.73233182 172.71403122 52.15896327 173.2075555 48 173 C47.49411853 171.08487728 46.99551609 169.16783078 46.5 167.25 C46.2215625 166.18265625 45.943125 165.1153125 45.65625 164.015625 C45 161 45 161 45 157 C44.01 157.33 43.02 157.66 42 158 C40.27604932 158.16988852 38.54417968 158.26609392 36.8125 158.3125 C35.91144531 158.34988281 35.01039063 158.38726562 34.08203125 158.42578125 C21.02997144 156.62264498 9.8365276 143.13738994 2.26269531 133.25146484 C-1.1671641 128.39481425 -3.6540042 124.20708724 -3.125 118.0625 C-2.94582031 117.02996094 -2.76664062 115.99742187 -2.58203125 114.93359375 C-1.77633833 109.48840738 -1.80837316 104.12153704 -1.8125 98.625 C-1.80041504 97.58996338 -1.78833008 96.55492676 -1.77587891 95.48852539 C-1.76408336 89.89154098 -2.3412006 85.38145388 -4 80 C-4.21118463 77.30396767 -4.33446604 74.75302571 -4.3125 72.0625 C-4.30686035 71.32016113 -4.3012207 70.57782227 -4.29541016 69.81298828 C-4.08441489 59.96723876 -1.9981767 50.66653163 0.53515625 41.19921875 C0.80634277 40.1848877 1.0775293 39.17055664 1.35693359 38.12548828 C1.8975006 36.13196869 2.45058301 34.1417868 3.01806641 32.15576172 C5.23970124 24.10496024 6.31918596 17.10321712 3.0625 9.1875 C1.83310998 6.13385383 0.71252132 3.21759627 0 0 Z M77.125 33.75 C76.48691406 34.09804687 75.84882813 34.44609375 75.19140625 34.8046875 C71.69400696 36.77608167 68.95524717 38.43741441 67 42 C66.43672257 44.11818257 66.43672257 44.11818257 66.3125 46.25 C66.209375 47.4875 66.10625 48.725 66 50 C74.46835441 48.48565898 82.71254868 46.27628663 91 44 C90.48883683 39.94554665 89.75152802 37.04156286 87.5 33.625 C87.0565625 32.93664062 86.613125 32.24828125 86.15625 31.5390625 C85.7746875 31.03117187 85.393125 30.52328125 85 30 C82.39964236 30 79.40615534 32.46599639 77.125 33.75 Z " fill="#FEB732" transform="translate(321,208)"/>
<path d="M0 0 C0.74443359 1.54107422 0.74443359 1.54107422 1.50390625 3.11328125 C13.00511765 26.69518925 26.71080397 41.5777268 51 52 C52.485 52.495 52.485 52.495 54 53 C55.17843483 58.60934979 55.18366412 64.1085507 55.1875 69.8125 C55.19974609 70.75931641 55.21199219 71.70613281 55.22460938 72.68164062 C55.25613325 87.94970619 49.68645799 96.4942721 39.47265625 107.6015625 C34.34053184 112.5796421 28.49858332 116.97035743 22 120 C22.99 121.485 22.99 121.485 24 123 C24.39387788 125.32387947 24.73486085 127.65793749 25 130 C20.29139022 130.75586961 15.77498361 131.12822427 11.0078125 131.1328125 C9.08582031 131.13474609 9.08582031 131.13474609 7.125 131.13671875 C6.46886719 131.13462402 5.81273437 131.1325293 5.13671875 131.13037109 C3.10930087 131.12495808 1.0820991 131.13036782 -0.9453125 131.13671875 C-2.85570312 131.13478516 -2.85570312 131.13478516 -4.8046875 131.1328125 C-5.96983887 131.13168457 -7.13499023 131.13055664 -8.33544922 131.12939453 C-11 131 -11 131 -12 130 C-12.04092937 127.66702567 -12.04241723 125.33294775 -12 123 C-10.948125 123.165 -9.89625 123.33 -8.8125 123.5 C1.33829751 124.97114072 1.33829751 124.97114072 11 123 C9.80503906 123.02320313 8.61007812 123.04640625 7.37890625 123.0703125 C-10.63978369 123.32609832 -22.20396209 120.1209346 -35.7578125 107.23828125 C-36.49773437 106.49964844 -37.23765625 105.76101562 -38 105 C-38.63679688 104.37480469 -39.27359375 103.74960938 -39.9296875 103.10546875 C-44.54789781 98.2306912 -52 88.99328804 -52 82 C-53.19625 82.0825 -54.3925 82.165 -55.625 82.25 C-60.14678758 82.22599051 -62.59123008 81.09167504 -66 78 C-69.25432093 72.57613178 -69.80794267 67.26417885 -69 61 C-68.21484375 58.765625 -68.21484375 58.765625 -67 57 C-65.04322708 56.44558101 -63.08032287 55.90190769 -61.08984375 55.484375 C-55.49883992 54.18851617 -51.58222187 51.3882218 -48 47 C-44.68869169 41.30671514 -42.0943061 35.34769508 -39.74829102 29.20654297 C-37.28155955 22.75682488 -34.8056417 17.07326824 -30 12 C-29.12408203 11.06414062 -29.12408203 11.06414062 -28.23046875 10.109375 C-23.14766857 5.18185385 -17.741928 2.94720281 -11 1 C-10.37609375 0.80148438 -9.7521875 0.60296875 -9.109375 0.3984375 C-6.06696213 -0.17624049 -3.08661757 -0.05935803 0 0 Z " fill="#FCD997" transform="translate(252,85)"/>
<path d="M0 0 C0.86496094 0.32871094 1.72992188 0.65742187 2.62109375 0.99609375 C13.94095822 5.97545575 20.51900669 14.72214833 25 26 C29.20129125 37.52235322 30.40886316 49.3004362 31.234375 61.44921875 C31.30140625 62.41472656 31.3684375 63.38023437 31.4375 64.375 C31.47746094 65.18710938 31.51742187 65.99921875 31.55859375 66.8359375 C31.85148617 69.11707809 31.85148617 69.11707809 33.55078125 70.92578125 C35.53225513 73.76179913 35.0699233 75.39858167 34.75 78.8125 C34.44497565 93.52992481 41.18343763 107.91906065 46.25 121.5 C52.60307971 138.66715241 56.54291424 157.98498464 51 176 C50.36237864 177.34746474 49.70299431 178.68545779 49 180 C45.39384368 178.79794789 44.70453001 177.58405978 42.5 174.5625 C40.3870074 171.6756702 39.01523684 170.01015789 36 168 C36.165 167.0925 36.33 166.185 36.5 165.25 C37.80641385 155.59813648 37.36507458 147.80809693 33 139 C33.20496094 139.53109375 33.40992188 140.0621875 33.62109375 140.609375 C33.89050781 141.31578125 34.15992188 142.0221875 34.4375 142.75 C34.70433594 143.44609375 34.97117187 144.1421875 35.24609375 144.859375 C36.50159771 148.42422561 37.15428406 151.58838292 37.1875 155.375 C37.20167969 156.10460937 37.21585938 156.83421875 37.23046875 157.5859375 C36.94394245 160.58717904 36.02935582 163.17639155 35 166 C20.99282511 159.74618834 20.99282511 159.74618834 18.55859375 155.46484375 C18.10949374 153.23348858 17.87916798 151.26954062 18 149 C18 151.64 18 154.28 18 157 C-3.97821941 153.64600374 -3.97821941 153.64600374 -9.76171875 146.96484375 C-11 145 -11 145 -11 143 C-11.66 143 -12.32 143 -13 143 C-13.18175781 142.36191406 -13.36351562 141.72382813 -13.55078125 141.06640625 C-13.80214844 140.24011719 -14.05351562 139.41382813 -14.3125 138.5625 C-14.55613281 137.73878906 -14.79976563 136.91507813 -15.05078125 136.06640625 C-15.36402344 135.38449219 -15.67726563 134.70257813 -16 134 C-16.99 133.67 -17.98 133.34 -19 133 C-18.39414062 132.731875 -17.78828125 132.46375 -17.1640625 132.1875 C-3.58121789 125.83490806 8.83899535 114.9422043 15 101 C15.81051836 96.35599624 16.11935795 91.90067411 16.09765625 87.19140625 C16.09443359 85.95068359 16.09121094 84.70996094 16.08789062 83.43164062 C16.07951172 82.15482422 16.07113281 80.87800781 16.0625 79.5625 C16.05798828 78.25861328 16.05347656 76.95472656 16.04882812 75.61132812 C16.03709251 72.40750448 16.02067363 69.20377637 16 66 C15.25000732 65.86730713 14.50001465 65.73461426 13.72729492 65.59790039 C3.18440278 63.28659945 -7.18974401 56.16625242 -15 49 C-15.75539063 48.33613281 -16.51078125 47.67226562 -17.2890625 46.98828125 C-26.56941441 38.36169984 -33.62598187 26.86919492 -38 15 C-38 14.34 -38 13.68 -38 13 C-50.31069661 15.01895424 -62.09755955 17.40487613 -70 28 C-73.74059063 34.24688057 -76.38680175 40.91829025 -79 47.6875 C-82.8649779 57.63481865 -86.73926621 64.3696331 -96.5 69.25 C-99.42810326 70.12843098 -101.95945176 70.14142085 -105 70 C-109.15100375 53.80096096 -105.80888277 36.63798806 -97.5625 22.43359375 C-90.20929591 10.98097838 -79.33259282 3.96560731 -66.25 0.5859375 C-61.61976471 -0.2488405 -57.01434186 -0.46162971 -52.31933594 -0.65478516 C-48.21111013 -0.83178561 -44.35024475 -1.22227566 -40.3125 -2.0625 C-27.50963442 -4.39995264 -12.25367532 -4.67798733 0 0 Z " fill="#3E3939" transform="translate(290,72)"/>
<path d="M0 0 C4.67033543 4.18858163 6.67622479 9.92608595 7.32421875 16.078125 C7.41678821 21.74622451 6.93794364 26.67065498 5 32 C5.56976563 32.23460937 6.13953125 32.46921875 6.7265625 32.7109375 C16.90410374 38.48170831 20.71006173 50.53968346 24 61 C24.40460449 62.25103516 24.40460449 62.25103516 24.81738281 63.52734375 C25.66505815 66.15934145 26.49359909 68.79641549 27.3125 71.4375 C27.56733154 72.253396 27.82216309 73.06929199 28.0847168 73.90991211 C29.689526 79.28572199 30.52422418 84.40823478 31 90 C30.34 90 29.68 90 29 90 C28.7215625 91.27359375 28.443125 92.5471875 28.15625 93.859375 C27.40229771 97.25481507 26.61060717 100.63783171 25.78125 104.015625 C23.42031168 113.6421078 21.22417407 123.15179369 20 133 C20.66 133 21.32 133 22 133 C21.94779297 132.195625 21.94779297 132.195625 21.89453125 131.375 C21.42137702 117.67605839 25.37226732 104.73083773 30 92 C30.66 92 31.32 92 32 92 C34.14827738 102.1913062 36.29437871 112.38306618 38.43722534 122.57551575 C39.50202048 127.63850518 40.57142779 132.70048408 41.64453125 137.76171875 C42.0964379 139.90362817 42.54826815 142.04555371 43 144.1875 C43.20713623 145.15816406 43.41427246 146.12882813 43.62768555 147.12890625 C43.81242432 148.00804687 43.99716309 148.8871875 44.1875 149.79296875 C44.34605469 150.5408667 44.50460937 151.28876465 44.66796875 152.05932617 C45 154 45 154 45 157 C42.05093755 157.98302082 39.89901823 158.22978654 36.8125 158.3125 C35.91144531 158.34988281 35.01039063 158.38726562 34.08203125 158.42578125 C21.02997144 156.62264498 9.8365276 143.13738994 2.26269531 133.25146484 C-1.1671641 128.39481425 -3.6540042 124.20708724 -3.125 118.0625 C-2.94582031 117.02996094 -2.76664062 115.99742187 -2.58203125 114.93359375 C-1.77633833 109.48840738 -1.80837316 104.12153704 -1.8125 98.625 C-1.80041504 97.58996338 -1.78833008 96.55492676 -1.77587891 95.48852539 C-1.76408336 89.89154098 -2.3412006 85.38145388 -4 80 C-4.21118463 77.30396767 -4.33446604 74.75302571 -4.3125 72.0625 C-4.30686035 71.32016113 -4.3012207 70.57782227 -4.29541016 69.81298828 C-4.08441489 59.96723876 -1.9981767 50.66653163 0.53515625 41.19921875 C0.80634277 40.1848877 1.0775293 39.17055664 1.35693359 38.12548828 C1.8975006 36.13196869 2.45058301 34.1417868 3.01806641 32.15576172 C5.23970124 24.10496024 6.31918596 17.10321712 3.0625 9.1875 C1.83310998 6.13385383 0.71252132 3.21759627 0 0 Z " fill="#FDD998" transform="translate(321,208)"/>
<path d="M0 0 C0.495 0.309375 0.99 0.61875 1.5 0.9375 C3.97585468 1.98973824 5.37334606 2.09118568 8.00390625 2.19140625 C10.11376953 2.41845703 10.11376953 2.41845703 12 3 C13.78512959 5.43999195 14.80000823 7.2217425 15.9375 9.9375 C19.31515355 17.06603316 23.29265295 22.48012055 29 28 C29.56203125 28.55945313 30.1240625 29.11890625 30.703125 29.6953125 C42.1907864 40.3464937 53.85947658 43.37438713 69.0625 43.125 C70.11888672 43.11597656 71.17527344 43.10695312 72.26367188 43.09765625 C74.84269253 43.0743167 77.4212199 43.04157775 80 43 C73.47929197 47.34713869 64.90618139 46.83835195 57.37109375 45.55078125 C55.56419136 45.09501517 53.77804857 44.55781916 52 44 C52 46.31 52 48.62 52 51 C51.34 51 50.68 51 50 51 C49.79375 51.9075 49.5875 52.815 49.375 53.75 C47.70942107 57.68682292 45.78302154 59.2630772 42 61 C38.24776982 62.01791896 34.46294068 62.64583385 30.625 63.25 C29.60277344 63.42273438 28.58054688 63.59546875 27.52734375 63.7734375 C25.02007517 64.195221 22.51138985 64.60363246 20 65 C20 62.03 20 59.06 20 56 C19.99484375 56.64066406 19.9896875 57.28132813 19.984375 57.94140625 C19.71259854 60.98077298 19.27005101 63.2107883 18 66 C15.16581953 68.22840144 12.27959518 69.76667019 9.06640625 71.39453125 C5.1254688 73.45787557 2.24064167 75.98031117 -1 79 C-1.41640288 71.7515055 -0.44166784 65.83085645 2 59 C-0.36785694 64.1475151 -1.15123546 68.19352634 -1.3125 73.875 C-1.61860702 80.09030342 -3.0702795 83.78648531 -6.56640625 88.8671875 C-8.2947073 91.43844738 -9.21407124 94.01347072 -10 97 C-10.66 97 -11.32 97 -12 97 C-19.56615648 78.26475539 -13.03545942 58.08856987 -7.55957031 39.72045898 C-3.64976217 26.57753668 -1.40189749 13.623145 0 0 Z " fill="#3E3938" transform="translate(188,164)"/>
<path d="M0 0 C1.31363677 3.9409103 0.27243178 5.97398285 -1.296875 9.76171875 C-2.4644409 13.47847018 -2.24077539 17.14759383 -2 21 C-0.35 19.68 1.3 18.36 3 17 C7.75196334 34.09322734 12.2720614 50.86163378 6.48046875 68.2265625 C3.32185079 78.61382195 3.52832812 88.55501973 3.875 99.3125 C3.95083671 102.0645996 4.01864503 104.81619413 4.06838989 107.56889343 C4.1000642 109.26101269 4.14692583 110.95294127 4.2116394 112.64411926 C4.34641013 118.92248617 2.82636189 121.97300384 -1.41796875 126.68359375 C-17.65056388 142.82460865 -17.65056388 142.82460865 -26.8125 143.125 C-27.864375 143.08375 -28.91625 143.0425 -30 143 C-29.05731601 129.47736063 -25.88557941 116.3047193 -22.83691406 103.13574219 C-21.31598281 96.5236937 -20.02150606 89.90897889 -18.82421875 83.23046875 C-17.64323803 76.9241861 -16.12167375 70.68482354 -14.625 64.44726562 C-14.41488281 63.55330078 -14.20476562 62.65933594 -13.98828125 61.73828125 C-13.79790283 60.94462158 -13.60752441 60.15096191 -13.41137695 59.33325195 C-12.9727084 56.84520721 -12.9293354 54.52130161 -13 52 C-14.485 51.505 -14.485 51.505 -16 51 C-15.45769016 45.39368882 -13.94741297 40.92276822 -11.625 35.8125 C-11.16867188 34.76545898 -11.16867188 34.76545898 -10.703125 33.69726562 C-9.42586683 30.82889312 -8.29951096 28.36560993 -6.30078125 25.92578125 C-4.40457188 23.11848029 -4.62568013 20.72726337 -4.5625 17.375 C-4.24940792 10.86812977 -2.8799097 5.81339912 0 0 Z " fill="#FAD798" transform="translate(190,221)"/>
<path d="M0 0 C10.55808656 1.74259681 10.55808656 1.74259681 15 5 C14.27278509 11.62397932 13.07272101 18.09589929 11.75 24.625 C11.53037598 25.71804443 11.31075195 26.81108887 11.08447266 27.93725586 C9.42829584 36.09495812 7.61318396 44.20904969 5.73754883 52.31860352 C4.09079377 59.48149887 2.68232929 66.66042263 1.38134766 73.89501953 C-0.81589617 86.02346785 -3.19414705 98.11670645 -5.6875 110.1875 C-5.90196777 111.23357422 -6.11643555 112.27964844 -6.33740234 113.35742188 C-6.53930176 114.32615234 -6.74120117 115.29488281 -6.94921875 116.29296875 C-7.21738403 117.58497192 -7.21738403 117.58497192 -7.4909668 118.90307617 C-8 121 -8 121 -9 123 C-15.16618181 123.40214229 -20.17745757 121.96818336 -26 120 C-25.01 119.01 -25.01 119.01 -24 118 C-23.30510997 115.64222902 -22.71882704 113.33303538 -22.1875 110.9375 C-22.01790771 110.19653076 -21.84831543 109.45556152 -21.67358398 108.69213867 C-19.94796214 101.02383358 -18.44613832 93.30993555 -16.9309082 85.59790039 C-15.36028997 77.65344531 -13.63712374 69.75436329 -11.78735352 61.87036133 C-10.32986955 55.62003303 -9.06129935 49.34181828 -7.81640625 43.04589844 C-6.98073609 38.86321376 -6.08310531 34.69498562 -5.17578125 30.52734375 C-4.86652551 29.09961175 -4.55728074 27.67187737 -4.24804688 26.24414062 C-3.77699031 24.07134587 -3.30403106 21.89903918 -2.82592773 19.7277832 C-2.3535429 17.57882525 -1.88901669 15.42828989 -1.42578125 13.27734375 C-1.15161377 12.02171631 -0.87744629 10.76608887 -0.5949707 9.47241211 C-0.03948359 6.23043706 0.11483799 3.2799617 0 0 Z " fill="#03CCC1" transform="translate(163,268)"/>
<path d="M0 0 C0.21092285 1.03479492 0.4218457 2.06958984 0.63916016 3.13574219 C6.02272246 29.59666779 6.02272246 29.59666779 11.63256836 56.01025391 C13.01224026 62.36035953 14.35861162 68.71537018 15.66685486 75.08055115 C16.46638109 78.96318711 17.27564485 82.84376644 18.08572388 86.72421265 C18.48518423 88.64976188 18.88030481 90.57621678 19.27096558 92.50357056 C19.8191707 95.20536538 20.38253921 97.90359133 20.94921875 100.6015625 C21.1927005 101.83070122 21.1927005 101.83070122 21.44110107 103.08467102 C22.36778121 107.87700338 22.36778121 107.87700338 26 111 C24.29456816 111.50980881 22.58547682 112.00738268 20.875 112.5 C19.92367187 112.7784375 18.97234375 113.056875 17.9921875 113.34375 C14.90214879 114.02146084 12.15297352 114.11227205 9 114 C6.91268999 106.64697611 5.49579794 99.28189219 4.25 91.75 C1.58542023 75.7638685 -2.02492533 59.95708628 -5.65087891 44.1652832 C-6.51798653 40.36679983 -7.25235888 36.91156271 -7 33 C-7.66 33 -8.32 33 -9 33 C-9.18175781 33.72703125 -9.36351562 34.4540625 -9.55078125 35.203125 C-9.80214844 36.20859375 -10.05351562 37.2140625 -10.3125 38.25 C-10.58578125 39.35472656 -10.8590625 40.45945312 -11.140625 41.59765625 C-11.6702768 43.69459589 -12.21845463 45.78707917 -12.796875 47.87109375 C-15.13988954 56.49004011 -16.10741022 65.13710849 -17 74 C-17.66 74 -18.32 74 -19 74 C-19.28661099 67.2805645 -18.23340838 61.29192222 -16.75 54.75 C-16.52546143 53.73671631 -16.30092285 52.72343262 -16.06958008 51.67944336 C-14.46638637 44.61666385 -12.60506278 37.76734187 -10 31 C-9.34 31 -8.68 31 -8 31 C-8.18699463 30.29915283 -8.37398926 29.59830566 -8.56665039 28.8762207 C-9.40976547 25.69114859 -10.236273 22.50199269 -11.0625 19.3125 C-11.35705078 18.20970703 -11.65160156 17.10691406 -11.95507812 15.97070312 C-12.22900391 14.90400391 -12.50292969 13.83730469 -12.78515625 12.73828125 C-13.04176025 11.75899658 -13.29836426 10.77971191 -13.56274414 9.77075195 C-14.02289876 6.8548978 -13.76151422 4.83138669 -13 2 C-8.40279823 0.52889543 -4.86506545 -0.04638918 0 0 Z " fill="#FA8331" transform="translate(360,267)"/>
<path d="M0 0 C5.78911765 -0.32161765 10.0617903 0.53111183 15.546875 2.33984375 C17.92699449 2.98035361 19.80026846 3.14197602 22.25 3.0625 C26.10924062 2.99817932 28.3953957 3.749423 32 5 C33.49780954 5.1489684 34.9983143 5.2722135 36.5 5.375 C41.84320484 5.93885579 44.90600724 7.64291584 48.5234375 11.71484375 C54.4306342 20.00590917 58 33.78305153 58 44 C51.43094605 43.38100787 45.38427947 41.85754296 39.0625 40 C38.10537109 39.72671875 37.14824219 39.4534375 36.16210938 39.171875 C29.13789336 37.13789336 29.13789336 37.13789336 28 36 C27.54397467 33.52120884 27.1648541 31.03570524 26.79296875 28.54296875 C25.43932848 24.20198444 22.85710487 22.48406441 18.984375 20.296875 C17.91703125 19.78640625 16.8496875 19.2759375 15.75 18.75 C14.67234375 18.22921875 13.5946875 17.7084375 12.484375 17.171875 C11.66453125 16.78515625 10.8446875 16.3984375 10 16 C9.20724852 17.4160599 8.41584688 18.83287553 7.625 20.25 C7.18414062 21.03890625 6.74328125 21.8278125 6.2890625 22.640625 C5.14252177 24.73914197 4.05350448 26.8536077 3 29 C2.01 29 1.02 29 0 29 C0.53894425 24.40191871 1.76571528 21.13215631 4.0625 17.125 C4.61035156 16.15820312 5.15820312 15.19140625 5.72265625 14.1953125 C6.14417969 13.47085938 6.56570312 12.74640625 7 12 C6.38769531 11.71769531 5.77539062 11.43539062 5.14453125 11.14453125 C2.19884382 9.57242484 0.76807272 7.81581951 -1 5 C-0.75 2.1875 -0.75 2.1875 0 0 Z " fill="#FDD998" transform="translate(104,223)"/>
<path d="M0 0 C0.495 0.495 0.495 0.495 1 1 C0.91796803 5.26566233 0.60357544 7.36465743 -2.375 10.5 C-3.56010988 11.36604184 -4.77282693 12.19466768 -6 13 C-6.845625 13.556875 -7.69125 14.11375 -8.5625 14.6875 C-16.18108592 19.59725537 -16.18108592 19.59725537 -19.3828125 21.171875 C-22.88443642 22.95498977 -24.59761325 24.04161265 -26.15625 27.75390625 C-26.91261265 30.49572084 -27.5286199 33.19627047 -28 36 C-30.97 36.66 -33.94 37.32 -37 38 C-39.08717823 33.71711027 -39.36630177 29.74649772 -39.375 25.0625 C-39.39949219 24.37220703 -39.42398437 23.68191406 -39.44921875 22.97070312 C-39.4788058 17.76831425 -38.42491731 14.88409393 -35 11 C-29.59321873 6.64117764 -23.53811765 4.57268017 -16.9375 2.6875 C-16.07833984 2.42388672 -15.21917969 2.16027344 -14.33398438 1.88867188 C-9.39973343 0.4374216 -5.14452072 -0.40308994 0 0 Z " fill="#FDD998" transform="translate(415,223)"/>
<path d="M0 0 C4.47996285 -0.35839703 8.01026692 -0.42694368 12.1875 1.375 C21.93302127 10.47081985 23.79540864 23.34653337 26 36 C26 36.66 26 37.32 26 38 C19.13963599 37.34034961 12.65556077 35.7637236 6 34 C6.99 33.505 6.99 33.505 8 33 C10.0134896 24.34199471 10.91134363 13.3859718 6.22265625 5.5546875 C4.43083453 3.27626883 2.40190362 1.60126908 0 0 Z " fill="#FCD998" transform="translate(136,229)"/>
<path d="M0 0 C-0.40992188 0.45890625 -0.81984375 0.9178125 -1.2421875 1.390625 C-1.78101563 2.00421875 -2.31984375 2.6178125 -2.875 3.25 C-3.40867187 3.85328125 -3.94234375 4.4565625 -4.4921875 5.078125 C-8.14228743 9.73058398 -8.28186907 13.62138523 -8.1875 19.4375 C-8.18685547 20.18837891 -8.18621094 20.93925781 -8.18554688 21.71289062 C-8.15477356 25.60058598 -7.94326151 29.2043157 -7 33 C-9.24805002 33.67321284 -11.49852224 34.33834123 -13.75 35 C-15.00296875 35.37125 -16.2559375 35.7425 -17.546875 36.125 C-21 37 -21 37 -25 37 C-20.55858061 9.70354121 -20.55858061 9.70354121 -12.8125 2.9375 C-8.11959079 -0.29539301 -5.61459842 -0.09055804 0 0 Z " fill="#FCD897" transform="translate(383,229)"/>
<path d="M0 0 C0 0.66 0 1.32 0 2 C-1.21816406 2.10957031 -2.43632812 2.21914062 -3.69140625 2.33203125 C-5.31516288 2.49159115 -6.9388577 2.65178093 -8.5625 2.8125 C-9.36236328 2.88275391 -10.16222656 2.95300781 -10.98632812 3.02539062 C-16.98761573 3.63776691 -22.57034385 4.57034385 -27 9 C-27.16687448 11.58354218 -27.16687448 11.58354218 -27 14 C-26.43152344 13.7834375 -25.86304688 13.566875 -25.27734375 13.34375 C-19.62626156 11.3059641 -14.404692 9.60320328 -8.5625 12 C-7.7890625 12.495 -7.7890625 12.495 -7 13 C-7.125 15.3125 -7.125 15.3125 -8 18 C-12.98240638 21.80236276 -18.97950491 21.72775215 -25 21 C-25.99 20.34 -26.98 19.68 -28 19 C-28.53673893 24.36090593 -28.53673893 24.36090593 -26.5 29 C-26.005 29.33 -25.51 29.66 -25 30 C-24.01 29.67 -23.02 29.34 -22 29 C-14.01540957 28.56447689 -14.01540957 28.56447689 -11 31 C-10.25 33.625 -10.25 33.625 -10 36 C-14.18951725 38.7930115 -17.20875168 37.91461658 -22 37 C-25.0625 35.9375 -25.0625 35.9375 -27 35 C-29.16658535 36.49479421 -29.16658535 36.49479421 -31 39 C-31.35800135 41.75871627 -31.18660165 44.20097524 -31 47 C-29.68 47.66 -28.36 48.32 -27 49 C-27 49.66 -27 50.32 -27 51 C-29.91517292 49.92598892 -31.77810176 49.22189824 -34 47 C-34.57028991 43.94444667 -34.54304084 41.05789986 -34 38 C-31.5 34.9375 -31.5 34.9375 -29 33 C-29.33 32.34 -29.66 31.68 -30 31 C-31.81756777 25.54729668 -31.13715669 20.54363886 -30 15 C-30.0825 13.845 -30.165 12.69 -30.25 11.5 C-30 8 -30 8 -27.875 5.1875 C-19.83885709 -0.92695657 -9.63142697 -0.14233636 0 0 Z M-25 16 C-25 16.66 -25 17.32 -25 18 C-21.80885219 19.5955739 -18.47259755 19.38584417 -15 19 C-11.59758176 17.6351132 -11.59758176 17.6351132 -9 16 C-9 15.34 -9 14.68 -9 14 C-14.50150228 11.24924886 -19.77028125 13.83597845 -25 16 Z M-24 33 C-18.23647361 35.91519551 -18.23647361 35.91519551 -12 35 C-14.68011761 31.79601637 -14.68011761 31.79601637 -18.5625 30.625 C-21.25194019 30.86337681 -21.25194019 30.86337681 -24 33 Z " fill="#FF5159" transform="translate(165,152)"/>
<path d="M0 0 C20.9665688 -0.59153329 20.9665688 -0.59153329 29 6 C30.55546612 9.11093224 30.01719109 12.26078292 29.9375 15.6875 C29.83764219 18.02768893 29.83764219 18.02768893 31 20 C31.40454244 25.25905171 30.66166853 28.45298292 28 33 C28.61875 33.268125 29.2375 33.53625 29.875 33.8125 C32 35 32 35 34 38 C34.79049034 45.00148588 34.79049034 45.00148588 31.625 49 C29 51 29 51 27 51 C28.15173355 48.53199953 29.04783565 46.95216435 31 45 C31.50042146 42.08461971 31.50042146 42.08461971 31 39 C29.12498069 36.62280307 29.12498069 36.62280307 27 35 C26.21625 35.33 25.4325 35.66 24.625 36 C20.00638131 37.27410171 15.75750644 37.16923936 11 37 C10.67 35.35 10.34 33.7 10 32 C12.5761565 29.4238435 14.45590729 28.77644845 18 28.75 C20.78089761 28.85376484 23.34286645 29.11428882 26 30 C28.32590854 26.36576791 28.16265833 23.22911669 28 19 C27.44054687 19.32355469 26.88109375 19.64710938 26.3046875 19.98046875 C21.21920026 22.23015039 15.58569549 21.52856516 10.4375 19.8125 C8 18 8 18 7.125 15.3125 C7.063125 14.1678125 7.063125 14.1678125 7 13 C11.06769456 10.28820363 14.22378916 10.47016311 19 11 C21.80918144 11.80196104 24.31203976 12.82707189 27 14 C27 11.69 27 9.38 27 7 C18.38679011 3.11016328 9.32413328 2.5476307 0 2 C0 1.34 0 0.68 0 0 Z M9 14 C9 14.66 9 15.32 9 16 C14.01624348 19.00974609 17.30937216 19.37937519 23 19 C23.66 18.67 24.32 18.34 25 18 C25 17.34 25 16.68 25 16 C19.85033525 13.47771523 14.58265201 11.208674 9 14 Z M12 33 C12 33.66 12 34.32 12 35 C15.30435084 36.12377697 17.0506862 35.89554742 20.25 34.5625 C20.95640625 34.27503906 21.6628125 33.98757813 22.390625 33.69140625 C23.18726563 33.34916016 23.18726563 33.34916016 24 33 C19.56770648 30.04513765 16.43229352 30.04513765 12 33 Z " fill="#FF535B" transform="translate(334,390)"/>
<path d="M0 0 C0.66 0 1.32 0 2 0 C2.23074219 0.53109375 2.46148437 1.0621875 2.69921875 1.609375 C5.34130816 7.33216155 7.89741309 10.62107248 13.8125 13.25 C14.534375 13.4975 15.25625 13.745 16 14 C16 14.66 16 15.32 16 16 C14.6696875 16.556875 14.6696875 16.556875 13.3125 17.125 C8.8997457 19.62278545 5.91301868 22.37447995 4.24609375 27.16796875 C3.75834395 29.09509209 3.37041069 31.04692546 3 33 C0.26091559 31.63045779 0.06809996 30.1033527 -1.125 27.3125 C-3.70581044 21.91062349 -6.95094454 19.0820537 -12 16 C-11 14 -11 14 -7.625 12.1875 C-4.22742551 10.30769444 -2.59469228 8.63235464 -1 5 C-0.29329272 2.30745009 -0.29329272 2.30745009 0 0 Z " fill="#FFB832" transform="translate(150,87)"/>
<path d="M0 0 C0.25523437 1.30710938 0.25523437 1.30710938 0.515625 2.640625 C2.14966331 10.67174945 4.2155072 18.28257326 7 26 C2.43345638 26.31493404 -0.13595771 26.40756712 -4.3125 24.4375 C-8.25561095 20.86119007 -9.74328722 17.64454913 -10.24609375 12.46484375 C-10.44174342 4.65036559 -10.44174342 4.65036559 -8 1 C-5.25800883 0.31450221 -2.82008529 0 0 0 Z " fill="#F3C06D" transform="translate(193,141)"/>
<path d="M0 0 C2.8125 -0.25 2.8125 -0.25 6 0 C8.39212079 2.13310134 8.92473611 3.59159129 9.50390625 6.734375 C9.63237233 13.34609601 8.98753532 17.34825318 4.703125 22.4765625 C1.24898012 25.56627925 -1.38878255 26.25617875 -6 26 C-5.54636829 24.41531323 -5.08688548 22.83230076 -4.625 21.25 C-4.36976563 20.36828125 -4.11453125 19.4865625 -3.8515625 18.578125 C-3 16 -3 16 -1.9375 14.0625 C-0.6770135 11.28942969 -0.57256669 8.77935592 -0.375 5.75 C-0.30023438 4.67234375 -0.22546875 3.5946875 -0.1484375 2.484375 C-0.09945313 1.66453125 -0.05046875 0.8446875 0 0 Z " fill="#F3BF6D" transform="translate(316,141)"/>
<path d="M0 0 C2 3 2 3 3.1875 5.4375 C5.64537197 8.91242244 8.22627624 10.07753695 12 12 C11.2575 12.53625 10.515 13.0725 9.75 13.625 C5.69823257 17.12425369 3.32707884 21.24332784 1 26 C0.62488281 25.40832031 0.24976563 24.81664062 -0.13671875 24.20703125 C-3.09436713 19.64018376 -5.97679031 15.6682206 -10 12 C-5.25 9 -5.25 9 -3 9 C-2.01 6.03 -1.02 3.06 0 0 Z " fill="#FFB831" transform="translate(137,408)"/>
<path d="M0 0 C2 2 2 2 3.375 4.4375 C5.70781341 8.11616731 7.8960405 9.6320135 12 11 C12 11.66 12 12.32 12 13 C11.0925 13.515625 10.185 14.03125 9.25 14.5625 C4.94862721 17.22282772 3.66610284 21.41331688 2 26 C-1.68523007 24.15738497 -2.75164509 19.74506474 -4 16 C-6.50447516 14.78130071 -6.50447516 14.78130071 -9 14 C-8.67 13.01 -8.34 12.02 -8 11 C-7.21625 10.608125 -6.4325 10.21625 -5.625 9.8125 C-1.80198875 7.17280175 -1.36472882 4.3814978 0 0 Z " fill="#FFB832" transform="translate(373,168)"/>
<path d="M0 0 C6.93 0 13.86 0 21 0 C19.81927711 4.72289157 19.81927711 4.72289157 17 7 C13.28458682 8.23847106 9.86060413 8.54936472 6 8 C3.0625 6.25 3.0625 6.25 1 4 C0.67 2.68 0.34 1.36 0 0 Z " fill="#FFFDFA" transform="translate(241,173)"/>
<path d="M0 0 C2.375 1.5 2.375 1.5 4 3 C3.625 5.4375 3.625 5.4375 3 8 C-0.1818216 9.5909108 -3.53636204 9.39584434 -7 9 C-9.0625 7.75 -9.0625 7.75 -10 6 C-9.875 3.9375 -9.875 3.9375 -9 2 C-5.51131349 -0.32579101 -4.10281481 -0.41865457 0 0 Z " fill="#FFC872" transform="translate(220,165)"/>
<path d="M0 0 C0.99 0.33 1.98 0.66 3 1 C3 1.66 3 2.32 3 3 C3.7425 3.20625 4.485 3.4125 5.25 3.625 C8.83368332 5.41684166 10.03492182 7.56111318 12 11 C14.47987907 18.4396372 13.7795968 27.7035584 11 35 C10.34 35 9.68 35 9 35 C9.165 34.13375 9.33 33.2675 9.5 32.375 C11.1351955 20.81186326 11.1351955 20.81186326 8.3125 9.8125 C3.40414062 3.84287373 -2.74411789 2.79173271 -10 1 C-6.1184112 -1.58772586 -4.46573523 -0.87719799 0 0 Z " fill="#4E453E" transform="translate(133,227)"/>
<path d="M0 0 C-2.72481421 1.81654281 -4.88737097 2.73463485 -7.9375 3.8125 C-13.02462239 5.79247329 -15.5448978 8.08979559 -18 13 C-18.09889016 15.59441251 -18.13894573 18.1560948 -18.125 20.75 C-18.12886719 21.45382813 -18.13273437 22.15765625 -18.13671875 22.8828125 C-18.1290116 27.02926087 -17.80922888 30.9153209 -17 35 C-17.66 35 -18.32 35 -19 35 C-22.42258849 28.031115 -22.51439967 17.69869539 -20.125 10.28515625 C-17.20403582 5.27916172 -12.51756714 1.12992596 -6.95703125 -0.65625 C-4.43984121 -1.09839116 -2.45878456 -0.61469614 0 0 Z " fill="#49423C" transform="translate(395,227)"/>
<path d="M0 0 C0.78246094 -0.02578125 1.56492187 -0.0515625 2.37109375 -0.078125 C5.04181509 0.32176911 5.88227439 1.19699122 7.5625 3.25 C5.6875 7.125 5.6875 7.125 4.5625 8.25 C2.6015625 8.453125 2.6015625 8.453125 0.1875 8.5 C-0.60398437 8.52578125 -1.39546875 8.5515625 -2.2109375 8.578125 C-4.4375 8.25 -4.4375 8.25 -6.23828125 6.8671875 C-7.4375 5.25 -7.4375 5.25 -7.25 3.125 C-5.79253373 -0.23838369 -3.32075312 0.06543356 0 0 Z " fill="#FFC872" transform="translate(285.4375,166.75)"/>
<path d="M0 0 C1.9375 1.125 1.9375 1.125 3 3 C2.6875 6.1875 2.6875 6.1875 2 9 C-4.47511312 10.3438914 -4.47511312 10.3438914 -6.8125 8.8125 C-8.04580213 6.93009149 -9.07951712 5.05338489 -10 3 C-6.70836605 -0.03843134 -4.43945893 -0.56673944 0 0 Z " fill="#3F3936" transform="translate(230,150)"/>
<path d="M0 0 C7.51419167 -0.44418867 12.86103208 -0.63833132 19 4 C19.33 4.66 19.66 5.32 20 6 C13.07 5.67 6.14 5.34 -1 5 C-0.67 3.35 -0.34 1.7 0 0 Z " fill="#49413B" transform="translate(267,135)"/>
<path d="M0 0 C0.98484375 0.00902344 1.9696875 0.01804688 2.984375 0.02734375 C4.10585937 0.04474609 4.10585937 0.04474609 5.25 0.0625 C5.8125 2 5.8125 2 6.25 4.0625 C4.66596476 5.64653524 2.9728362 5.28224935 0.77734375 5.37890625 C-0.12177734 5.42080078 -1.02089844 5.46269531 -1.94726562 5.50585938 C-3.36555664 5.56483398 -3.36555664 5.56483398 -4.8125 5.625 C-5.76189453 5.66818359 -6.71128906 5.71136719 -7.68945312 5.75585938 C-10.04281353 5.86229276 -12.39628354 5.96431008 -14.75 6.0625 C-9.73061602 0.62483402 -7.20142573 -0.08573126 0 0 Z " fill="#453E39" transform="translate(226.75,134.9375)"/>
<path d="M0 0 C0.66 0.33 1.32 0.66 2 1 C0.88200014 2.33920838 -0.24461897 3.67122556 -1.375 5 C-2.31472656 6.11375 -2.31472656 6.11375 -3.2734375 7.25 C-4.12808594 8.11625 -4.12808594 8.11625 -5 9 C-5.66 9 -6.32 9 -7 9 C-7.391875 10.175625 -7.78375 11.35125 -8.1875 12.5625 C-10.45833333 19.375 -12.72916667 26.1875 -15 33 C-15.99708138 29.91218103 -16.00509032 28.15101502 -14.92578125 25.1015625 C-14.66990234 24.37453125 -14.41402344 23.6475 -14.15039062 22.8984375 C-13.87388672 22.14820312 -13.59738281 21.39796875 -13.3125 20.625 C-13.05533203 19.8825 -12.79816406 19.14 -12.53320312 18.375 C-9.8143777 10.81305803 -5.76501618 5.50296999 0 0 Z " fill="#BBBABA" transform="translate(220,88)"/>
<path d="M0 0 C0.99 0.33 1.98 0.66 3 1 C1.63408831 4.54243452 0.09068516 7.92627929 -1.625 11.3125 C-2.07101563 12.19550781 -2.51703125 13.07851562 -2.9765625 13.98828125 C-3.31429687 14.65214844 -3.65203125 15.31601563 -4 16 C-4.99 16 -5.98 16 -7 16 C-6.66830805 9.69785303 -3.32676012 5.14783064 0 0 Z " fill="#353131" transform="translate(111,236)"/>
<path d="M0 0 C0.66 0 1.32 0 2 0 C3.17176518 2.12232979 4.33754785 4.24757791 5.5 6.375 C5.83386719 6.97828125 6.16773438 7.5815625 6.51171875 8.203125 C9 12.7734375 9 12.7734375 9 15 C7.68 15 6.36 15 5 15 C3.96709159 13.06891037 2.94901328 11.129882 1.9375 9.1875 C1.08478516 7.56908203 1.08478516 7.56908203 0.21484375 5.91796875 C-1 3 -1 3 0 0 Z " fill="#373232" transform="translate(407,236)"/>
<path d="M0 0 C2.0234375 0.3359375 2.0234375 0.3359375 4.0234375 2.3359375 C5.3434375 2.3359375 6.6634375 2.3359375 8.0234375 2.3359375 C7.3634375 3.6559375 6.7034375 4.9759375 6.0234375 6.3359375 C3.06168627 5.72316138 1.64284967 5.08221228 -0.9765625 3.3359375 C-4.5148302 3.11009063 -7.58563328 3.29257466 -10.9765625 4.3359375 C-7.81189135 -0.06708323 -5.05271564 -0.08393215 0 0 Z " fill="#574D43" transform="translate(277.9765625,150.6640625)"/>
<path d="M0 0 C0.99 0.33 1.98 0.66 3 1 C3 1.66 3 2.32 3 3 C3.66 3.33 4.32 3.66 5 4 C1.8568669 5.57156655 -0.365464 4.11705576 -3.625 3.0625 C-5.40777344 2.49208984 -5.40777344 2.49208984 -7.2265625 1.91015625 C-8.14179687 1.60980469 -9.05703125 1.30945313 -10 1 C-6.1184112 -1.58772586 -4.46573523 -0.87719799 0 0 Z " fill="#473F3A" transform="translate(133,227)"/>
<path d="M0 0 C0.33 0 0.66 0 1 0 C1.06058594 0.79664063 1.12117188 1.59328125 1.18359375 2.4140625 C1.79667866 10.24332697 1.79667866 10.24332697 3 18 C2.34 18 1.68 18 1 18 C-1.06440531 13.8160335 -1.0902668 10.79364129 -0.625 6.1875 C-0.51414062 5.02605469 -0.40328125 3.86460937 -0.2890625 2.66796875 C-0.19367188 1.78753906 -0.09828125 0.90710938 0 0 Z " fill="#655847" transform="translate(375,244)"/>
<path d="M0 0 C-3.44450737 2.29633824 -5.93812283 2.54016485 -10 3 C-10.33 2.34 -10.66 1.68 -11 1 C-6.87831311 -0.62950412 -4.29299643 -1.26264601 0 0 Z " fill="#3C3634" transform="translate(395,227)"/>
<path d="M0 0 C0.66 0.33 1.32 0.66 2 1 C0.02 3.31 -1.96 5.62 -4 8 C-4.33 7.01 -4.66 6.02 -5 5 C-3.35 3.35 -1.7 1.7 0 0 Z " fill="#868383" transform="translate(220,88)"/>
</svg>
